<svg preserveAspectRatio="none" overflow="visible" style="display: block;" width="20" height="20" viewBox="0 0 20 20" fill="none" xmlns="http://www.w3.org/2000/svg">
<g id="archive_regular">
<path id="Vector" fill-rule="evenodd" clip-rule="evenodd" d="M5.8 2.54667C5.36417 2.64333 5.3075 2.68833 3.9975 3.99833C2.91167 5.08333 2.7675 5.24 2.675 5.43333C2.61389 5.566 2.56723 5.70485 2.53583 5.8475C2.51083 5.98417 2.50083 7.60167 2.50167 11.0475C2.50417 16.6267 2.48917 16.275 2.73417 16.6808C2.87333 16.9117 3.15583 17.1817 3.3925 17.31C3.75667 17.5067 3.47417 17.4992 10 17.4992C16.5233 17.4992 16.2408 17.5067 16.6092 17.31C16.8325 17.1908 17.1908 16.8325 17.31 16.6092C17.505 16.2442 17.4992 16.43 17.4992 11.0142C17.5 7.57417 17.4892 5.985 17.4633 5.84917C17.4321 5.70648 17.3854 5.56761 17.3242 5.435C17.2317 5.23917 17.0933 5.08917 16.0017 3.99833C14.9108 2.90667 14.7608 2.76833 14.565 2.67583C14.4324 2.61459 14.2935 2.56793 14.1508 2.53667C13.8567 2.48167 6.0475 2.49167 5.8 2.54667ZM14.65 5L15.4825 5.83333H4.5175L5.35 5L6.1825 4.16667H13.8175L14.65 5ZM15.8333 11.6667V15.8333H4.16667V7.5H15.8333V11.6667ZM9.7275 8.38583C9.61047 8.42693 9.50502 8.49552 9.42 8.58583C9.17083 8.83417 9.16667 8.86667 9.16667 10.4433V11.8083L8.93417 11.5883C8.61667 11.2892 8.53833 11.2517 8.23083 11.2508C8.0075 11.25 7.95917 11.2617 7.81417 11.3508C7.40917 11.6 7.28083 12.1258 7.5325 12.505C7.58583 12.585 8.06167 13.08 8.58917 13.605C9.49167 14.5017 9.56083 14.5625 9.73083 14.6133C9.9575 14.68 10.0417 14.68 10.2692 14.6133C10.44 14.5633 10.5042 14.5058 11.4708 13.5383C12.4142 12.595 12.4967 12.5033 12.55 12.3375C12.596 12.2057 12.6079 12.0643 12.5845 11.9267C12.5611 11.789 12.5033 11.6595 12.4163 11.5503C12.3294 11.441 12.2162 11.3556 12.0873 11.3019C11.9584 11.2482 11.818 11.2281 11.6792 11.2433C11.4508 11.2667 11.3425 11.3275 11.0658 11.5883L10.8333 11.8083V10.4433C10.8333 8.8675 10.8292 8.83417 10.5808 8.58583C10.3483 8.35333 10.0558 8.285 9.7275 8.38583Z" fill="#D3FEB6"/>
</g>
</svg>
