<svg xmlns="http://www.w3.org/2000/svg" xmlns:xlink="http://www.w3.org/1999/xlink" width="678" height="678" viewBox="0 0 678 678" fill="none" role="presentation" aria-hidden="true">
<g id="Globe Component" filter="url(#filter0_i_1_3)">
<g>
<rect width="678" height="678" rx="339" fill="#3430E9"/>
<g id="Map" filter="url(#filter1_di_1_3)">
<path d="M5.4 466.9C6.2 466.9 9.6 468.7 13.1 470.9C16.5 473.1 20.7 475.4 22.4 476L25.5 477.2L21.7 477.2C19.6 477.3 16.5 477.5 14.9 477.8C13.2 478 10.3 477.6 8.4 476.9C3.1 474.9 1.6 473 2.9 469.7C3.5 468.1 4.6 466.9 5.4 466.9ZM-28.1 -106.9C-23.8 -109 -21.9 -109.4 -21.1 -108.6C-20.2 -107.8 -20.2 -106.9 -21.1 -105.3C-22.5 -102.5 -20.7 -98.4 -18.4 -99.3C-17.6 -99.6 -16.3 -99.6 -15.4 -99.3C-14.1 -98.8 -14.1 -98.3 -15.6 -96.1C-19.6 -90 -10.6 -91.7 -4.5 -98.3C-2 -100.9 1.9 -101.7 5.5 -100.3C7.8 -99.4 7.6 -98.7 3.7 -94.5C-0.9 -89.4 -3.2 -88.4 -10.1 -88.4C-13.5 -88.4 -17.4 -87.7 -19.2 -86.7C-21.8 -85.4 -23 -85.3 -25 -86.2C-28.8 -87.9 -30.1 -86.5 -27.4 -83.7L-25.1 -81.2L-29.7 -79.9C-32.2 -79.2 -36.4 -78.6 -39 -78.5C-42.7 -78.4 -43.7 -78 -43.7 -76.5C-43.7 -75.2 -45.5 -73.9 -49.4 -72.3C-62.2 -67.1 -73 -57.7 -69 -55.3C-68.3 -54.8 -67.2 -53.2 -66.5 -51.6C-65.7 -49.8 -64.1 -48.5 -62.3 -48.2C-60.7 -47.8 -56.6 -46.2 -53.1 -44.5C-49.6 -42.8 -45.4 -41.1 -43.7 -40.7C-38.9 -39.7 -38.9 -39.6 -41.1 -34C-43 -29.2 -43 -28.5 -41.5 -25.6C-40.7 -23.9 -39.4 -22.6 -38.7 -22.6C-35.2 -22.7 -32 -25.8 -30 -31.1C-28.1 -36.1 -27.2 -37 -21.8 -39.9C-13.7 -44.2 -10.3 -48.5 -11.2 -53.2C-11.8 -56.3 -11.5 -57.1 -8.8 -58.9C-7.2 -60.1 -5 -63 -3.9 -65.3C-1.6 -70.4 2.1 -72.2 8.4 -71.2C14 -70.2 20.5 -66.7 21.3 -64.2C21.7 -63.2 21.4 -61.4 20.7 -60.1C19.7 -58.3 19.9 -57.5 21.9 -55.4L24.2 -53L28 -54.9C30.1 -56 33.4 -58.1 35.4 -59.6L39 -62.3L39.9 -60C40.4 -58.7 40.5 -57.1 40.2 -56.3C39.9 -55.5 40.1 -53.9 40.7 -52.8C41.4 -51.5 41.4 -50.1 40.9 -49C40.2 -47.9 40.6 -46.1 42.3 -43.1C44.7 -38.9 44.7 -38.9 42.6 -37.4C39.8 -35.4 41.6 -33.4 44.7 -35C47.7 -36.6 51.2 -36.4 53.4 -34.5C56.5 -31.6 53.9 -28.2 45.5 -24.2C36.3 -19.9 32.2 -19 20.2 -18.9C11.4 -18.9 10.2 -18.6 1.6 -14.5C-3.4 -12.1 -7.5 -9.7 -7.5 -9.2C-7.5 -7 -5.9 -7.2 0.2 -10.1C3.8 -11.8 8.4 -13.1 10.6 -13.1C14.4 -13.1 14.5 -13 13.3 -10.8C12.6 -9.5 11.2 -7.8 10 -6.9C8.3 -5.5 8.2 -4.9 9.3 -2.5C10.9 1.2 15.2 2.9 20.4 2L24.4 1.3L21.3 3.5C19.6 4.7 16.8 5.9 15 6.3C13.3 6.7 9.7 8.1 7.1 9.4C4.4 10.7 1.7 11.5 1 11C-0.7 10 1.1 8.5 6.5 6.2C11.3 4.2 10.5 2.1 5.3 3.1C3.3 3.4 -3.2 5.9 -9.1 8.5C-18.5 12.6 -20.1 13.7 -20.6 16.1C-21.3 19.2 -23.6 20.6 -31.5 23C-34.1 23.8 -37.4 25.7 -38.9 27.2C-40.4 28.7 -43.2 30.9 -45.2 32.2C-47.2 33.5 -49.1 35.6 -49.4 37.1C-50 39.4 -50.1 39.5 -50.8 37.7C-52.1 34.3 -54.1 37.6 -54.2 43.4C-54.3 49.4 -57.4 53.4 -64 56.5C-70.8 59.7 -80.4 67.2 -82.4 70.9C-84.1 74.1 -84.2 75.3 -83.1 83.6C-82.1 91.2 -82.2 93.2 -83.5 95.7C-84.5 97.6 -85.6 98.5 -86.6 98.1C-88.8 97.3 -91.6 88 -90.8 83.9C-90.3 81.1 -90.6 80 -92.7 78C-94.5 76.4 -96 75.8 -97.4 76.2C-98.5 76.6 -101.7 75.9 -104.4 74.7C-108.7 72.9 -110 72.7 -113 73.7C-115.1 74.4 -117.1 76 -117.8 77.5C-118.8 79.6 -119.4 79.9 -122.2 79.3C-123.9 79 -126.7 78 -128.2 77.2C-132 75.2 -134.2 75.4 -138.5 77.9C-140.5 79 -144.6 81.2 -147.6 82.8C-151 84.5 -153.4 86.5 -154 88.2C-154.6 89.7 -156.5 95.5 -158.3 101L-161.6 111.1L-159.9 117.6C-156.8 129.6 -152.5 133.2 -143.5 131.2C-136.7 129.8 -132.6 126.8 -131.1 122.3C-130.2 119.4 -129.2 118.5 -126.1 117.6C-121.5 116.3 -119.5 116.3 -117.8 117.4C-116.3 118.4 -116.8 119.9 -123.4 134.1C-127.9 143.8 -127.6 144.7 -119.8 143.6C-112.8 142.5 -106.4 143.3 -105.6 145.3C-105.3 146 -105.8 151.2 -106.7 156.7C-108.3 166.6 -108.2 166.8 -106 170.4C-104.7 172.4 -102.4 174.8 -100.7 175.6C-98.2 177 -97.3 177 -94.1 175.6C-88.9 173.4 -86.1 173.7 -82.5 176.6C-79.6 178.9 -79.2 178.9 -76.9 177.4C-75.6 176.6 -73.7 174.4 -72.8 172.6C-70.8 168.6 -67.4 165.7 -64.5 165.7C-63.3 165.7 -61.3 164.5 -59.9 163.1C-57.2 160.2 -52.3 159.2 -54.7 162.1C-56.7 164.4 -57.8 172.1 -56.5 174.5C-55.5 176.5 -55.4 176.5 -53.4 174.1C-52.1 172.4 -51.8 171.3 -52.5 170.5C-54.3 168.8 -53.8 167.3 -50.4 164.8C-47 162.2 -44.3 162.5 -41.3 165.7C-39.1 168 -27.3 171.2 -24 170.4C-18.8 169.1 -5 177.5 0.2 185C2.7 188.6 10.6 192.2 14.1 191.4C21.2 189.6 31.1 196.7 33.4 205.4C34 208 35.1 210.4 35.6 210.8C37.2 211.7 34.9 215.5 29.9 220.2C26.7 223.3 25.9 224.6 26.8 225.5C27.7 226.4 29.2 225.6 32.7 222.3C37.9 217.6 39.6 217.1 42.2 219.7C43.8 221.3 43.7 221.6 41.6 223.9C40.3 225.2 38.5 226.4 37.6 226.4C36.6 226.5 37 226.9 38.5 227.5C40.6 228.3 41.6 228.1 43.8 226.4C49.3 221.9 50.6 221.7 55.5 224.4C58.7 226.2 60 227.6 59.8 229C59.4 233 60.3 233.9 63.1 232.1C65.3 230.6 66.8 230.6 74.2 231.6C82 232.6 83 233.1 86.8 236.8C89.6 239.6 92.7 241.4 96.7 242.6C101.9 244.1 102.5 244.6 103.5 248.1C104.9 253.3 103.2 259 98.8 264.5C96.9 266.8 94.6 270.2 93.7 272.1C92.8 273.9 90.8 276.6 89.3 278.1C86.7 280.7 86.6 281.3 87.2 287.3C88.5 299.1 82.7 321 77.1 325.7C75.3 327.3 73.8 327.6 70.9 327.2C68.5 326.8 66.8 327.1 66.3 327.8C65.9 328.5 63.6 329.9 61.2 330.9C58.9 332 55.3 334.2 53.4 335.8C50 338.7 49.9 339 51 342.5C52.3 346.5 51.4 351.2 48.6 355.2C47.7 356.5 47 358.7 47 360.1C47 361.5 45.9 364.1 44.5 365.9C43.2 367.6 40.6 371.7 38.8 374.9C34.3 382.8 31.7 384.1 25.2 381.8C19.6 379.8 16.6 379.6 16.6 381.1C16.6 381.7 17.7 382.7 19.1 383.3C20.4 384 22.6 386.5 23.8 389C25.6 392.6 25.8 393.9 24.9 396C23.4 399.3 17.7 402 12.4 402C7.7 402 6.6 403.2 8.2 406.2C9.2 408.1 8.5 411.1 6.6 413.3C6.4 413.5 4.8 412.9 2.9 412C-1.5 409.7 -3 411.1 -0.8 415.4C0.1 417.2 1.8 418.9 3 419.3C5.1 420 5.1 420.1 3.4 422C2.4 423 1.9 424.7 2.3 425.6C2.7 426.6 1.8 428.7 0.2 430.9C-2.4 434.3 -2.5 434.5 -0.8 437.1C0.2 438.6 1.7 440.1 2.6 440.4C5.7 441.6 6.2 445.7 3.8 450.4C1.4 455.2 1.1 459.9 2.9 462.1C4.6 464.2 -1.1 468.1 -3.6 466.7C-4.7 466.1 -6.3 466 -7.4 466.3C-8.7 466.7 -9.7 466.1 -10.7 464.3C-11.4 462.8 -12.8 461.4 -13.7 461.1C-15.8 460.4 -20.2 453.3 -22.7 446.6C-23.9 443.3 -25.6 440.9 -27.6 439.8C-31.1 437.8 -31.3 436.9 -28.6 436.1C-25.5 435.1 -24.9 429.6 -27.5 425.9C-28.8 424.2 -29.4 422.1 -29.1 421.2C-28.6 420 -29.8 418 -32.8 415C-36.6 411.2 -37.2 409.8 -37.4 405.8C-37.5 403.2 -38.2 400.4 -38.8 399.6C-39.7 398.6 -39.8 394.9 -39.4 387.8C-38.9 380 -39.2 375.2 -40.5 368.6C-42.5 358.7 -43.6 340.2 -43 323.3C-42.9 319.7 -43.4 314.8 -44.1 312.4C-45.7 306.4 -53.4 298.9 -62.8 294C-69.6 290.4 -70.5 289.5 -73.2 284.1C-74.8 280.8 -77.8 275.9 -79.9 273.2C-82.1 270.4 -84.4 266.4 -85.1 264.3C-87.3 257.4 -91.3 250.5 -93.9 248.7C-95.4 247.8 -97 245.4 -97.6 243.4C-98.5 240.1 -98.2 239.2 -95.4 235C-92.3 230.5 -92.3 230.4 -94.3 229.8C-99.5 228.5 -97.3 221.7 -88.1 210.1C-82 202.4 -80.2 196.5 -81.9 189.7C-82.6 187.2 -83.1 184.5 -83.2 183.7C-83.3 183 -83.7 182.4 -84.2 182.4C-84.7 182.4 -84.6 181.5 -84 180.3C-83 178.6 -83.3 178 -85.6 177C-88.9 175.5 -93.9 177 -94 179.5C-94 182.5 -95.3 182.7 -99.7 180.5C-102 179.2 -104.5 178.2 -105.1 178.2C-105.8 178.2 -108.2 176.6 -110.6 174.5C-113 172.5 -115.5 170.4 -116.2 169.8C-116.9 169.2 -117.5 167.7 -117.5 166.3C-117.5 165 -118.5 163.1 -119.6 162.1C-120.7 161 -122.2 158.6 -122.8 156.6C-123.7 154 -124.4 153.3 -125.2 154.1C-126.9 155.8 -129.5 155.5 -135.7 152.8C-138.9 151.3 -142.3 148.9 -143.6 147C-144.9 145.2 -147.4 143 -149.1 142.1C-151.9 140.6 -152.7 140.6 -156.8 142.2L-161.3 143.9L-175.3 137.2C-183.9 133 -190.6 129.1 -192.6 126.9C-195.8 123.5 -196 123.1 -194.9 118.9C-193.9 115.1 -194.1 113.9 -196.2 109.5C-197.5 106.8 -200.5 102.5 -202.7 100.1C-204.9 97.7 -206.5 95.3 -206.2 94.8C-205.9 94.3 -207.5 90.9 -209.7 87.3C-212.2 83.2 -214 78.8 -214.5 75.6C-215 71.4 -215.7 70.2 -217.8 69.2C-220 68.2 -220.7 68.3 -221.9 70.1C-223.7 72.5 -223.2 75.1 -219.2 83.7C-217.6 87.1 -216 92.3 -215.5 95.1C-215.1 98 -213.8 102.1 -212.7 104.2C-210.1 109.4 -211.8 109.3 -215.9 104.1C-218.4 101 -219.1 99.3 -218.6 97.4C-218.1 95.3 -218.6 94.3 -221.1 92.4C-225 89.6 -225.8 87.8 -224.4 85.1C-223.5 83.6 -223.9 81.9 -226 77.8C-228.1 73.6 -228.6 71.5 -228 68.4C-227.2 63.3 -229.5 58.7 -233.7 57C-236.2 56 -237 54.8 -237.5 51.9C-237.9 49.8 -238.6 46.5 -239.1 44.7C-239.6 42.7 -239.5 41 -239 40.7C-238.5 40.4 -238.8 38.9 -239.7 37.5C-241.1 35.4 -241.2 34.4 -240.2 32.2C-239.6 30.8 -239.3 29.1 -239.7 28.5C-240 28 -239.1 26.2 -237.7 24.7C-236.2 23.2 -234.3 20.1 -233.4 17.9C-232.5 15.7 -229.7 11.6 -227.2 8.8C-224.7 6 -221.5 1.1 -220.1 -2.1C-218.2 -6.5 -217 -7.9 -215.3 -7.9C-214.1 -7.9 -213.2 -7.3 -213.2 -6.6C-213.6 -3.6 -211.2 -4.5 -208.5 -8.4C-207 -10.7 -206.1 -12.8 -206.6 -13C-207.2 -13.1 -207.6 -14 -207.6 -14.9C-207.6 -15.7 -209.8 -18.6 -212.4 -21.1C-216.8 -25.4 -217.1 -26 -215.7 -27.6C-214.5 -28.9 -214.3 -29.8 -215.1 -31.2C-216.5 -33.7 -214.3 -39.3 -211.9 -39.3C-211 -39.3 -210.7 -39.6 -211.3 -40.1C-212.6 -41.1 -213.3 -43.3 -213.1 -46.6C-212.8 -51.8 -213.9 -54 -217.8 -55.6C-219.9 -56.5 -223.1 -58.4 -224.9 -59.8C-226.8 -61.1 -229.1 -62.3 -230.1 -62.3C-231.1 -62.3 -235.6 -63.2 -240.2 -64.4C-247.5 -66.3 -248.8 -66.3 -251.4 -65C-256.6 -62.3 -262.2 -61.2 -264.5 -62.4C-266.2 -63.3 -268.1 -62.8 -274.6 -59.4C-278.9 -57.1 -284.2 -54.9 -286.2 -54.4C-288.2 -54 -292.1 -52.5 -294.8 -51.2C-302.4 -47.3 -313.4 -43.4 -316.4 -43.5C-318.4 -43.6 -317.1 -44.4 -311.9 -46.5C-303 -50 -293.9 -54.5 -293.1 -55.9C-292 -57.6 -294.3 -58.2 -297 -57C-299 -56 -300.2 -56.1 -302.5 -57.3L-305.4 -58.9L-302.2 -60.5C-298.6 -62.4 -297.5 -64.5 -298.3 -67.9C-299.1 -71.1 -294.6 -73.4 -285 -74.9C-279.9 -75.7 -276 -76.9 -273.3 -78.7C-268.7 -81.9 -269.5 -84.3 -274.5 -82.2C-276.9 -81.2 -278.6 -81.2 -282.1 -82.2C-286.4 -83.3 -286.5 -83.5 -284.6 -84.9C-281.4 -87.2 -274.8 -88.6 -270.5 -87.9C-267.7 -87.4 -265.4 -87.8 -263.1 -88.9L-259.8 -90.7L-262 -93C-263.2 -94.3 -264.2 -95.6 -264.2 -96C-264.2 -96.9 -257.9 -98.9 -254.7 -98.9C-253.2 -98.9 -248.8 -100 -245.1 -101.4C-241.4 -102.8 -232.9 -104.7 -226.2 -105.6C-215.3 -107.1 -212.9 -107.1 -204.8 -105.8C-199.7 -105 -192.7 -104 -189.3 -103.6C-185.8 -103.2 -179.7 -102 -175.7 -100.9C-166.3 -98.3 -160.3 -98.4 -149.8 -101C-145.2 -102.2 -140.6 -102.9 -139.5 -102.5C-138.4 -102.2 -136.6 -102.4 -135.4 -103C-133.8 -103.9 -132.5 -103.8 -130.2 -102.6C-128.2 -101.5 -125.6 -101.2 -122.1 -101.6C-118.4 -102.1 -115.2 -101.6 -110.5 -100C-106.9 -98.8 -102.9 -97.8 -101.6 -97.8C-99.4 -97.8 -99.4 -97.8 -101.3 -96.3C-103.3 -94.9 -103.3 -94.8 -101.5 -94.1C-100.4 -93.7 -96.8 -93.7 -93.4 -94C-87.2 -94.7 -87.2 -94.6 -85.5 -91.3L-83.7 -88L-81.5 -90.8C-80.2 -92.4 -77.1 -94.2 -74.3 -95.1C-70 -96.4 -68.7 -96.4 -64.4 -95.1C-61.3 -94.1 -57.7 -93.8 -54.9 -94.2C-51.4 -94.7 -49.8 -94.4 -47.5 -92.8C-44.7 -90.7 -44.6 -90.7 -42.1 -92.7C-40.6 -93.8 -37.7 -95.2 -35.6 -95.8C-30.4 -97.2 -28.7 -100.3 -31.8 -102.4C-33.9 -103.9 -33.9 -104.1 -28.1 -106.9ZM31.8 460.6C31.1 459.5 32.9 459.2 38 459.5C42.7 459.9 43.1 460.5 40.3 462.8C37.6 464.9 35.4 465.4 35.4 463.9C35.4 463.5 36 462.5 36.7 461.8C37.4 461.2 37.5 460.6 37.1 460.6C36.6 460.6 35.6 461.4 34.9 462.3C33.9 463.7 33.3 463.8 31.7 462.9C30.5 462.2 30.3 461.7 31 461.7C31.8 461.6 32.1 461.2 31.8 460.6ZM943.7 416.7C950 412 950.6 411.8 951.8 413.5C953.7 416.3 952.6 418.2 947.9 420.3C945.7 421.3 942.9 423.3 941.7 424.6C940.5 426 938.6 427.1 937.5 427.1C936.3 427.1 933.6 428.7 931.4 430.6C924 437.3 914.6 440.4 910.3 437.7C907.3 435.8 913.6 431.6 929.1 425.1C933.4 423.3 940 419.6 943.7 416.7ZM837.9 415.6C837.9 412.7 838.2 412.4 840.3 413.2C841.6 413.6 844.3 414.1 846.3 414.1C848.3 414.2 850.3 414.3 850.8 414.4C852.5 414.8 847.9 420 843.7 422.5C838.7 425.4 838.9 425.3 837 424.1C835.9 423.4 835.9 422.7 836.8 421.1C837.4 419.9 837.9 417.4 837.9 415.6ZM970.3 389.2C969.6 384.2 969.7 383.8 971.3 385.2C972.6 386.2 972.9 387.6 972.5 390C972 392.6 972.4 394 974.6 396.6C977 399.4 977.7 399.8 979.6 398.8C981.4 397.8 981.7 397.9 981.1 399.4C980.7 400.4 980.4 401.3 980.4 401.6C980.4 401.8 978.9 402.8 977 403.7C975.1 404.7 971.5 407.2 968.9 409.3C964.7 412.8 960.3 415.6 959.2 415.6C958.9 415.6 958.4 415.3 958.1 415C957.7 414.6 958.6 413.4 960 412.3C962.1 410.6 962.4 409.9 961.5 408.1C960.1 405.6 962.1 402.9 966.8 401C970.4 399.5 971.3 396.5 970.3 389.2ZM873.6 272.4C874.1 272.4 875.3 274.9 876.2 278C877.1 281 878.9 284.6 880.3 285.9C883.6 289 885.5 297.6 884 302.6C883.1 306 883.2 306.5 886.6 310C888.6 312 891.7 317 893.5 321C895.4 325 898.7 330.7 900.9 333.6L905 339L903.8 347.2C903 353.2 901.7 357.2 899.1 361.8C895.2 368.7 889.3 375.4 886.2 376.4C885.1 376.7 882.5 379.4 880.4 382.2C878.4 385.1 876.2 387.4 875.7 387.4C875.1 387.4 872.7 389.8 870.3 392.8C866.4 397.8 865.7 398.3 861.6 398.3C858.4 398.4 856 399.2 853.4 401.2L849.7 404L847.3 401.5C845.1 399.1 844.7 399 842.6 400.4C839.9 402.2 834.8 401.1 830.7 398C828.6 396.3 828.4 395.8 829.5 393.7C830.5 391.9 830.5 390.7 829.6 388.8C829 387.4 828.5 385.3 828.5 384.2C828.5 381.7 826.8 381.5 825.5 384C824.9 385 824.2 385.5 823.8 385.1C823.4 384.8 824.6 382.8 826.5 380.6C831 375.5 829.3 374.1 823.2 378.1C820.7 379.8 818.4 381.7 818.2 382.3C818 382.9 816.7 381.1 815.4 378.3C814 375.3 811.5 372.3 809.3 370.8C806 368.6 804.8 368.5 798.4 369.1C789.1 370 780 372.3 774.1 375.3C771.4 376.7 766.1 378 762.1 378.5C758.1 378.9 751.8 380.4 748.1 381.8C742.4 383.9 740.7 384.1 737.8 383.2C733.9 381.9 732.3 379.3 734.8 378.3C735.8 378 737.4 375.6 738.5 373C740.3 368.8 740.4 367.6 739.3 362.2C738.5 357.8 738.4 353.6 739.2 346.8C739.9 341.7 740.1 336.4 739.8 335.2C739.4 334 740 330.9 740.9 328.5C742.6 324.1 743 323.8 754.2 319.1C760.6 316.4 767.1 314.2 768.7 314.2C773 314.2 778.4 310.1 781.3 304.5C783.2 301 784.4 299.7 785.5 300.1C788.6 301.3 789.2 301.1 789 298.8C788.8 297.4 789.4 296.3 790.7 295.9C791.8 295.6 793.8 293.7 795.1 291.7C796.5 289.7 799.4 287.4 801.7 286.4C805.5 284.9 805.9 284.9 807.9 286.8C811.8 290.3 814.5 291.3 815.8 289.8C816.4 289 816.6 288.1 816.3 287.7C815.1 286.5 820.6 279.6 823.3 279C824.7 278.6 827.6 277.4 829.8 276.4C833.2 274.7 834.4 274.6 838.2 275.6C846.4 277.8 846.7 278.1 843.6 282.7C839.7 288.6 840.7 290.9 850.4 297.7C854.8 300.8 859 303.2 859.7 302.9C860.3 302.7 862.5 300.3 864.5 297.6C867.1 294 868.1 291.3 868.6 287C869.2 280.9 872.1 272.4 873.6 272.4ZM521.1 -139.3C523.3 -141.5 528.6 -141.5 533.2 -139.2C535 -138.3 538.1 -137.6 540 -137.6C541.7 -137.6 543.5 -137.2 544 -136.6L544.1 -136.4C544.6 -135.9 546.4 -135.5 548.1 -135.5C553.4 -135.5 563.5 -133.2 562.8 -132.2C562.5 -131.7 563.5 -131.3 565 -131.3C566.5 -131.3 569.2 -130.5 571.1 -129.5C573.6 -128.2 577 -127.7 584.4 -127.7C592.3 -127.6 594.9 -127.2 597.2 -125.7C598.8 -124.6 600.1 -123.4 600.1 -123.1C600.1 -122.7 597.7 -121.1 594.7 -119.5C587.6 -115.5 589.1 -113.8 597.7 -116.1C603.3 -117.5 604.6 -117.5 609.2 -116.1C613 -115 615.3 -114.9 617.9 -115.6C620.5 -116.3 623.1 -116.2 627.6 -115C632.2 -113.8 634.6 -113.7 637.6 -114.5C644.3 -116.4 652.6 -115.9 657.4 -113.3C659.8 -112 664.2 -109.6 667.2 -107.9C672.5 -105 672.8 -105 676.5 -106.7C679.6 -108 681.3 -108.2 685.8 -107.3C690.3 -106.4 692 -106.5 694.5 -107.8C697 -109.1 697.4 -109.8 696.5 -110.9C694.6 -113.1 701.2 -113.9 709.2 -112.5C712.9 -111.8 717.5 -111.2 719.5 -111C721.6 -110.9 725.5 -109.8 728.3 -108.5C732.6 -106.6 735.8 -106.1 748.3 -105.8C760.1 -105.5 763.9 -105 766.8 -103.5C769.7 -101.9 773 -101.5 784 -101.4C794.1 -101.3 798.6 -100.9 801.6 -99.6C806.5 -97.5 808.4 -98.3 805.8 -101.2C803.9 -103.3 803.9 -103.3 811.2 -102.6C823.5 -101.4 838.2 -98.7 843.2 -96.8C845.7 -95.8 850.7 -94.6 854.1 -94.2C857.6 -93.8 862.6 -92.3 865.3 -91C869.4 -88.9 870.7 -88.6 873.4 -89.6C877 -90.8 879.3 -89.9 884.8 -85.2L888.2 -82.2L885.6 -81.5C883.1 -80.9 876.2 -82.6 873.8 -84.5C873.1 -85 872.2 -85.2 871.7 -84.9C871.2 -84.6 868.7 -85.1 866.2 -85.9C860.4 -87.9 857.8 -87.2 860.4 -84.2C862.3 -82.2 862.2 -82.2 858.8 -82.4C852.3 -82.9 854 -81 863.6 -77.2C868.8 -75.2 873.2 -73.4 873.5 -73.1C874.5 -72.1 871.2 -71 868.9 -71.4C866.3 -71.9 859.9 -69.1 859.9 -67.5C859.9 -67 858.9 -65.6 857.7 -64.5C855.6 -62.5 855.2 -62.5 852.4 -63.9C849.9 -65.2 849 -65.3 846.6 -64C845 -63.2 842.3 -62.2 840.5 -61.8C838.8 -61.4 836.8 -60.6 836.1 -60C834 -58.2 837.7 -53.2 842.9 -50.6C845.8 -49.2 847.9 -47.4 848.5 -45.7C849 -44.2 850.2 -41.7 851 -40.2C852.4 -37.7 852.4 -37.3 850.9 -36.8C849.8 -36.3 849.5 -35.5 850 -34.3C850.4 -33.3 850.8 -31.3 851 -29.9C851.1 -28.4 851.6 -26.5 852 -25.5C852.5 -24.3 852.1 -23.6 850.4 -23C848.6 -22.5 847.4 -23.2 844.3 -26.5C842.2 -28.8 838.8 -32 836.6 -33.5C834.4 -35.1 830.5 -39.2 828 -42.6C823.4 -48.7 823.3 -48.9 824.8 -51.8C825.7 -53.5 826.4 -55.9 826.4 -57.3C826.5 -58.6 827.1 -60.8 827.9 -62.3C829.4 -65 828.8 -67.2 825.6 -70.9C823.5 -73.3 819.7 -71.5 820.7 -68.5C821.5 -65.7 818.8 -64.8 815.7 -66.8C814.4 -67.7 811.3 -68.8 808.9 -69.1C804.7 -69.8 804.4 -69.7 803.3 -66.8C802.7 -65.2 802.4 -62.6 802.7 -61C803.2 -58.6 802.9 -58.1 800.4 -57.6C798.7 -57.2 795.8 -57.7 793.5 -58.7C790.9 -59.7 788.4 -60.1 786.7 -59.6C785.2 -59.1 780.1 -58.7 775.4 -58.7C767.9 -58.6 766.5 -58.3 764.2 -56.2C762.8 -54.8 761.1 -51.5 760.4 -48.9C759.8 -46.2 758.5 -42.9 757.7 -41.6C756.3 -39.4 756.4 -39.2 760.5 -37.1C765 -34.9 769.8 -34.3 773.5 -35.5C776.3 -36.5 785 -29.8 787.7 -24.5C788.8 -22.3 790.7 -20 791.8 -19.4C796.1 -17.1 796.9 -2.1 793.4 7.7C790.9 14.5 788.1 16.7 784 15.1C782.5 14.5 781.1 14.1 780.9 14.1C780.7 14.1 779.5 16 778.3 18.4C776.6 21.5 776.3 23 777.1 24C778.7 25.8 777.5 28.2 774.5 29.6C773.1 30.2 771.9 31.2 771.9 31.8C771.9 32.3 775.2 35 779.2 37.8C784.3 41.3 787 44 788.3 46.7C789.2 48.9 789.9 50.9 789.6 51.1C789.4 51.3 787.3 52.4 784.9 53.6L780.5 55.8L777.9 49.8C775 43.2 772.5 40.5 768.1 39.3C765.9 38.7 765.1 37.8 765.1 36C765.1 34.3 764 32.9 761.7 31.6C758.3 29.6 758.3 29.6 754.7 31.8C751.1 34 751.1 34 750 32C749.4 30.8 748.9 29.2 748.9 28.3C748.9 27.4 748 26.2 746.9 25.6C745.3 24.8 744.3 25.3 741.4 28.5C739.4 30.6 736.8 32.9 735.7 33.5C734 34.5 733.9 34.9 735.1 36.4C735.9 37.3 738.5 39.2 741 40.6C745 42.8 745.7 42.9 747.1 41.6C748.3 40.3 749.4 40.3 753.2 41.3L757.8 42.5L755.2 44.2C750.5 47.4 749 49.1 748.3 51.9C747.7 54.3 748.1 55 750.2 56C751.6 56.6 753.7 59.2 754.9 61.6C756.1 64.1 758.6 67 760.3 68C764.1 70.3 765.2 72.7 763 73.9C761 75.1 762 76.8 764.7 76.8C767.9 76.8 768 78.8 764.8 90C761 103.5 757.5 108.1 748.5 111.4C745 112.7 740.6 113.8 738.9 113.9C734.9 114.1 731.8 115.8 729.1 119.3L726.9 122L725.9 119.4C724.6 115.9 721.6 115.1 717.3 116.9C713.3 118.5 710.7 121.2 709.6 124.7C708.7 127.8 712 133.2 717.5 137.5C722.1 141.1 727.2 150.1 728.4 156.7C729.4 162.4 727.6 166.1 722.6 168.3C720.4 169.3 718.3 171 717.9 172C717.2 174.5 712.5 177.5 711.7 176.1C711.3 175.6 711.3 174.2 711.6 173.2C712 172.1 712 170.5 711.6 169.5C711.1 168.2 710.5 168.1 708.9 168.9C707.1 169.9 706.5 169.6 705.1 167.6C701.7 162.7 691.7 154.7 689 154.7C688 154.7 687.7 155.9 687.8 158.4C688 160.4 687.5 164.3 686.9 167.1C685.9 171.6 686 172.5 687.9 175.1C689.1 176.7 690.4 179.2 690.8 180.7C691.1 182.1 694.2 185.5 697.6 188.3C703.4 192.9 704 193.8 706.4 201.5C707.9 206 709.1 210.2 709.1 210.7C709.1 212.5 706.9 211.8 702.3 208.5C697.6 205.1 694.6 199.8 692.1 190.3C691 186.2 689.8 184.4 686.4 181.9C682.2 178.9 682.1 178.6 682.4 173.5C682.6 170.7 683.1 166.6 683.5 164.5C684 161.5 683.5 159.4 681.5 155.1C680 152 678.2 147.3 677.6 144.6C676.1 138.6 674 137.6 670.3 141.1C668.8 142.5 667.3 143.7 666.9 143.7C665.2 143.7 663 140.2 663.5 138.5C664.5 135.3 658.4 124.4 654.8 122.9C652.8 122.1 651 120.1 649.8 117.5C647.7 112.8 645.4 111.1 643 112.3C642.2 112.8 638.8 113.7 635.5 114.4C629.4 115.7 627.2 117.5 628.1 120.7C628.4 121.8 627.3 122.9 624.8 124.2C622.7 125.1 620.5 127.1 619.8 128.5C619.2 130 617.7 131.4 616.6 131.8C615.5 132.1 613.8 133.7 612.8 135.3C611.9 136.9 609 139.9 606.4 141.9C602.8 144.6 601.7 146.1 601.9 148C602.9 159.1 601.4 168.5 597.5 174C593.8 179.4 593.5 179.6 590.3 178.1C588.6 177.3 587.5 175.8 587.1 173.4C586.7 171.5 584.6 166 582.4 161.3C569 132.5 567 127.1 568.1 121.9C568.9 118.4 567.1 113.1 565.3 113.7C564.5 113.9 563.9 114.8 563.9 115.6C563.8 120.4 558.5 121.1 554.3 116.9L551.5 114.1L553.9 113.2C556.6 112.3 556.3 109.6 553.6 110.1C552.6 110.2 550.4 109.2 548.6 107.7C546.9 106.2 545.1 105 544.6 105C544.1 105 543.4 104.1 543 102.9C542 99.9 536.5 97.3 533.7 98.5C531.2 99.6 508.4 99.4 504.6 98.2C503.3 97.8 500.7 95.8 499 93.8C495.9 90.3 495.8 90.3 491.1 91.5C486.7 92.7 486.1 92.6 480.1 89.6C474.9 87 473.4 85.6 471.8 82C469.7 77.5 465.2 74.3 462.5 75.3C461.6 75.7 460.6 77.3 460.2 79C459.7 81.4 460.2 83 462.8 86.5C464.6 88.9 466.5 92.7 467.1 94.9C468.4 99.6 470.9 101 473 98.2C474.3 96.4 474.6 96.4 475.5 97.7C476 98.6 476.3 99.8 476.1 100.3C475.5 102.1 481.6 105.1 484.4 104.4C485.8 104.1 488.9 101.6 491.2 99C494.8 94.9 496 94.6 495.4 98.1C495 100.4 496.8 103.1 499.9 104.7C504.5 107.1 511.1 112.5 511.1 113.9C511.1 114.6 509.8 116.3 508.3 117.7C506.8 119.1 504.7 122 503.5 124.2C500.8 129.6 492.8 137.5 490.1 137.5C486.9 137.5 482.3 140.1 480.4 142.9C479.6 144.3 477.2 146.1 475.3 147.1C465.3 152.1 453.4 157.1 450 157.7C446.4 158.4 446.1 158.3 444.2 154.5C443.1 152.3 441.8 147.9 441.4 144.8C440.8 140.7 439.7 138.1 437.6 135.6C435.9 133.7 434.6 131.7 434.6 131.2C434.6 130.6 432.7 128.2 430.4 125.8C427.5 122.9 425.6 119.6 424.5 115.6C423.5 112.4 421.6 108.3 420.2 106.6C410.6 94.7 407.8 90.5 406.3 86.1C404.4 80.3 402.8 79.3 402.1 83.6L401.6 86.7L398 82.2C392.6 75.3 391.9 78.4 397 86.8C399.4 90.8 403.3 97.8 405.6 102.4C407.9 107 410.9 112.2 412.2 114C413.6 115.9 414.7 118.7 414.7 120.6C414.7 124.6 415.9 127 420.5 132.8C422.3 135.1 424.2 138.4 424.6 140.2C425.1 142.5 427.1 145 431.4 148.4C438 153.7 442.3 159.2 443.4 163.8C443.8 165.6 445.3 167.3 447.2 168.3C450.1 169.8 451.2 169.8 460.4 167.8C465.9 166.6 471.7 165 473.4 164.1L476.3 162.6L477 166.7C477.6 170.5 477 172.3 469.5 186.6C461.5 201.9 461.1 202.4 453.1 208.7C448.6 212.3 443.9 216.6 442.7 218.4C441.4 220.1 437.4 224.8 433.8 228.9C423.2 240.7 421.7 251 428.8 264.9C430.6 268.5 431.3 271.1 430.8 272.8C430.5 274.2 430.7 277.8 431.3 280.7C432.3 285.3 432.2 286.6 430.5 289.9C428 294.8 426.1 296.5 419.1 300C416.1 301.5 413.6 303.2 413.6 303.7C413.6 304.3 411.5 307.1 408.9 310C406.3 312.9 404.2 315.8 404.2 316.4C404.2 316.9 405.2 319.3 406.4 321.6C409.9 328.6 407.5 333.7 399 337.2C395.4 338.7 394.2 341.7 395.1 347.2C395.6 350.1 395.3 351 393.6 351.9C392.5 352.5 390.5 354.7 389.1 356.8C384.8 363.6 372.5 375.5 366.9 378.3C362.2 380.7 361 380.9 357.6 379.9C354.5 379.1 352.1 379.2 347 380.5C338.8 382.6 339.6 382.7 336.5 379.5C334.2 377.3 333.9 376.1 334.4 373.1C334.8 370.2 334.4 368.5 332.4 365.6C331 363.5 329.8 361.3 329.8 360.7C329.8 360 328 357.1 325.7 354C322.2 349.3 321.5 347.5 320.9 341.5C319.9 331.1 316.5 319.8 312 311.6C309.8 307.6 307.7 302.3 307.3 300C306.5 294.9 308.6 287.4 313.2 278.3L316.3 272.3L314.6 267.1C313.6 264.1 313.1 260.6 313.5 259.2C313.9 257.4 313.5 255.4 312.2 253.2C311.1 251.4 309.4 247.3 308.5 244.1C307.3 239.9 305.6 237.2 302.2 233.8C295.5 227.3 294.7 224.7 296.7 217.6C300.9 203.2 296.4 194.8 285.3 196.5C281 197.1 280.8 197.1 280.2 194C279.8 191.7 278.5 190.3 275.3 188.7C271.2 186.6 269.4 186.6 264.3 188.6C263.2 189.1 258.5 190.7 253.9 192.2C246.9 194.5 244.8 194.8 241.8 193.9C239 193.1 236.6 193.3 230.7 194.9C224.7 196.6 222.5 196.8 219.2 195.9C212.4 194 200.7 183.5 199 177.7C197.7 173.3 189.7 162.9 187 162.1C185.3 161.7 185.1 161.3 186.1 160.6C187.2 159.9 187 159.6 185.3 159.1C182.7 158.4 182.4 156.3 185 156.3C186.5 156.3 186.6 156.1 185.2 155.2C184.3 154.6 184.1 154.2 184.9 154.2C185.8 154.2 185.5 152.9 184 150.5C182 147.1 182 146.6 183.5 144.9C188.2 139.8 189.2 128.7 185.7 121.6C184 118.3 185.1 113.7 188.7 108.9C190.1 107 192.7 102.6 194.6 99.1C197.9 92.8 205.3 84.1 207.3 84.1C209.5 84.1 216.7 76.5 216.7 74.1C216.7 68.7 219.9 63.4 225.1 60C227.9 58.2 231.2 55.2 232.4 53.2C234.9 49.2 235.3 49 238.2 51.1C239.3 51.8 242.1 52.8 244.5 53.2C248 53.8 249.7 53.4 254.9 50.6C264 45.7 269.6 44.5 279.9 45.2C286.7 45.6 289.8 45.3 293.1 44C298 42.1 302.2 43.2 301.1 46.2C300.7 47.1 300.9 48.4 301.5 49.1C302.3 50 302.3 51.3 301.5 53.3C300.6 55.8 300.8 56.6 303.1 59.1C304.7 60.7 307.4 62.2 309.2 62.6C317.6 64.3 320 65.4 321.7 68.3C323 70.5 324.6 71.6 327.4 72.1C329.6 72.5 332.7 73.5 334.3 74.4C337.2 75.8 337.5 75.8 339.9 73.6C341.5 72.1 342.2 70.5 341.8 69.3C341.5 68.3 341.7 66.5 342.4 65.3C344 62.3 348.6 62.6 355.8 66.2C363.6 70.1 378.4 72.9 383.7 71.5C386.2 70.8 388.7 70.8 390.9 71.4C398.1 73.7 401.8 71.9 402.8 65.8C403.2 63.8 403.7 62.2 404.1 62.2C404.7 62.2 405.1 59.1 405.2 52.5C405.2 50.3 405.7 48.6 406.3 48.6C407 48.6 407 47.8 406.2 46.4C404.9 44 402.3 44 396.1 46.6C393.1 47.8 392.3 47.8 389.6 46.2C386.2 44.2 382.7 43.9 381.6 45.5C380.9 46.7 375.5 45.9 372.6 44.1C370.5 42.8 368.6 38.9 368.6 36C368.6 34.9 367.5 33.3 366.2 32.4C364.2 31 364.1 30.6 365.4 29.7C366.3 29.1 368.1 28.9 369.4 29.2C371.1 29.6 372.6 29 374.5 27C376.3 25.2 378.6 24.2 381.1 24.1C383.1 24 386.1 23 387.7 22C391.2 19.7 399 20.3 405.1 23.4C413.4 27.5 420.7 27.2 423.6 22.8C425.1 20.4 425.1 20 423.7 17.7C422.8 16.4 418.6 13.3 414.2 10.8L406.4 6.4L407.9 3.6C408.7 2 409.1 0.5 408.8 0.1C408.4 -0.2 408.6 -1.1 409 -1.8C409.5 -2.6 410 -3.8 410.1 -4.5C410.3 -6.1 408.7 -5.7 400.3 -2C395.5 0.1 394.8 0.8 395.8 2.1C396.5 2.9 398.1 3.6 399.3 3.7C401.1 3.7 400.7 4.2 397.6 5.8C393.8 7.8 393.4 7.8 390.9 6.2C388.9 4.9 388.6 4.2 389.6 3C390.6 1.8 390.4 1.4 388.9 0.8C387.8 0.4 386.4 -0.6 385.8 -1.4C382.8 -5.4 373.3 5.1 370.5 15.4C369.2 20.3 369.2 20.6 371.7 22.4L374.2 24.3L369.6 25.3C367 25.8 363.6 25.9 361.9 25.4C358.8 24.6 355 25.8 355 27.7C355 28.2 354.2 28.4 353.4 28C352.5 27.7 351.1 28 350.3 28.7C349 29.7 349.2 30.6 351.3 34.5C353.6 38.8 353.6 39.4 352.2 42.2C350.4 45.8 348.8 45.6 346.2 41.3C344.5 38.3 344.5 38.3 346.8 37.9C349.8 37.5 349.9 35.6 347.1 35.2C340.6 34.2 337.1 30.7 337.1 25.4C337.1 21.2 333.3 16.6 328.5 15.2C326.1 14.4 323.4 12.9 322.6 11.7C321.8 10.6 319.5 9 317.4 8.1C315.3 7.2 313 5.6 312.2 4.5C311.1 3 310.4 2.8 308.8 3.6C307.7 4.2 306.8 5.4 306.8 6.2C306.8 8.9 320.1 21.2 326.6 24.5C333.6 28 334.6 29.2 329.8 28.2C325.6 27.2 324.4 28.2 325.9 31.4C326.9 33.7 326.7 34.3 324.6 36.3L322.2 38.6L322.8 35.5C323.7 30.6 317.1 23.5 311.7 23.5C309.7 23.5 302.1 16.1 300.1 12.2C298 8.1 295.6 7.3 292.2 9.6C287.1 13 283.3 14.2 279.4 13.5C274.1 12.6 270.8 14.5 271.6 17.8C272 19.6 271.8 20.3 270.8 20.3C270 20.3 268 21.5 266.3 23C264.7 24.4 262.9 25.6 262.5 25.6C261.2 25.6 257.5 32.2 257.5 34.5C257.5 36.8 253.4 41.2 249.5 43.2C248.2 43.9 245.3 44.4 243 44.4C239.8 44.4 238.5 44.9 237.6 46.5C236.4 48.7 236.4 48.7 233.7 46C231.2 43.5 229.7 42.9 224.7 42.1C222 41.7 221.5 35.6 223.5 27C224.4 23.4 224.8 19.2 224.5 17.9C223.5 13.9 226.6 11.6 231.8 12.4C243.8 14.2 250.8 14.3 252.5 12.7C254.7 10.4 255.7 3 254.4 -1.2C253.5 -3.9 252.2 -5 248.5 -6.4C243.1 -8.5 243 -10.5 248.3 -10.5C250.3 -10.6 253.2 -11.4 254.8 -12.4C256.3 -13.4 258 -14 258.6 -13.6C260.1 -12.7 265.7 -16 267.5 -18.8C268.4 -20.2 270.2 -21.6 271.5 -21.9C272.7 -22.2 276.1 -24.7 279 -27.3C283.1 -31.1 285.2 -32.3 288.7 -32.7C293.1 -33.3 297.4 -36.8 295.4 -38.2C294.1 -39 293.1 -44.1 293.8 -45.9C294.1 -46.8 295.6 -48.3 297.1 -49.3L299.7 -51L299.1 -46.7C298.5 -43 298.6 -42.5 300.2 -42.7C301.2 -42.9 303.1 -43.6 304.4 -44.3C306.4 -45.4 306.9 -45.4 307.4 -44C308.3 -41.7 305.8 -38.9 304.1 -40.4C303.1 -41.1 302.5 -41.1 302 -40.3C301.5 -39.4 301 -39.4 300.4 -40.4C299.9 -41.2 299.3 -41.6 299 -41.3C298.7 -41 299.6 -39.4 300.9 -37.8C303.1 -35 303.5 -34.8 306.7 -35.9C309.4 -36.9 310.7 -36.8 313 -35.6C315.6 -34.3 316.5 -34.4 321.5 -36.3C325.9 -37.9 327.6 -38.1 329.6 -37.2C331.3 -36.4 332.7 -36.5 334.3 -37.3C339 -39.7 340.3 -41.6 339.8 -44.9C338.9 -49.9 340.5 -51.6 344.7 -50C347.5 -48.9 348.3 -48.9 349.6 -50.2C351 -51.6 350.9 -52.1 348.6 -54.5C346.5 -56.7 346.3 -57.3 347.7 -58.2C348.5 -58.8 351.7 -59 354.7 -58.7C360.3 -58.1 367.2 -60.2 366 -62.2C365 -63.9 358.6 -64.4 353.2 -63.2C348.4 -62.1 347.1 -62.2 343.4 -63.8C337.7 -66.4 337 -69.4 341 -74.9C346 -81.9 346.9 -84.1 345.5 -85.9C343.4 -88.4 341.3 -87.6 336.4 -82.2C333.8 -79.4 330.3 -76.5 328.6 -75.8C326.9 -75.1 324.8 -73.1 323.9 -71.5C322.5 -68.7 322.5 -68.1 324 -65.9C324.8 -64.6 326.5 -63.2 327.7 -62.8C330.9 -61.8 330.3 -59.9 325.7 -56.7C324.3 -55.8 322.4 -53 321.5 -50.7C320.4 -47.7 318.7 -45.7 316 -44.1C312.3 -42 312.1 -42 310.1 -43.8C308.9 -44.9 307.6 -47 307.3 -48.6C307 -50.2 305.4 -53 303.8 -54.9L300.9 -58.3L297.3 -56.1C295.3 -54.9 292.7 -53.9 291.6 -53.9C288.3 -54 284.4 -57.6 284.1 -60.9C284 -62.5 283.6 -64.6 283.2 -65.6C282.3 -68 286.9 -72.4 291.8 -73.7C296.7 -75.1 306.6 -82 308.3 -85.3C309.1 -86.7 311.6 -89.6 314 -91.7C316.4 -93.9 318.3 -96.1 318.3 -96.6C318.3 -97.2 320.5 -98.5 323.3 -99.4C326 -100.4 330.6 -102.2 333.5 -103.4C337 -104.8 341.4 -105.6 347.1 -105.7C357 -106 363.5 -104.7 368.8 -101.3C371.5 -99.7 373.6 -99.1 375.6 -99.5C379.2 -100.2 398.5 -94.3 399.3 -92.2C400.1 -90.1 394.6 -88.1 389.8 -88.8C387.6 -89.1 383.1 -89.9 379.8 -90.6C375.3 -91.6 373.5 -91.6 372.6 -90.7C371.7 -89.9 372.1 -89.2 374.3 -88.3C375.8 -87.5 377.8 -85.6 378.6 -84C380.8 -79.9 387.5 -76.6 391 -77.9C394.4 -79.2 394.4 -79.6 390.8 -81.5C387.6 -83.3 389.1 -83.7 393.2 -82.1C396.5 -80.9 400.2 -82.4 399.4 -84.7C398.9 -85.8 400.1 -86.5 403.3 -87.4C410.2 -89.1 410.7 -89.4 410.2 -90.8C408 -96.1 408 -95.9 411.1 -95.6C412.8 -95.4 414 -94.6 413.9 -93.9C413.8 -93.2 414.6 -92.1 415.8 -91.5C417.7 -90.5 419.1 -90.9 424.1 -93.5C431.4 -97.3 437.1 -98.6 439.3 -96.8C440.5 -95.8 442.4 -95.8 448.1 -96.8C452.1 -97.4 455.9 -97.7 456.5 -97.4C457 -97 457.8 -97.2 458.2 -97.9C459 -99.2 456.7 -102.2 455.5 -101.4C454 -100.5 449 -102.2 450.1 -103.3C451.2 -104.3 480.3 -97.6 482.1 -95.8C483.2 -94.6 487 -96.2 487 -97.9C487 -98.4 484.9 -99.9 482.3 -101.1C474.5 -105 474 -111.1 481.4 -112.9C485.7 -114 487.5 -112.8 493.5 -104.8C501.2 -94.6 501 -95.1 498.5 -91.5C496.6 -88.9 496.5 -88.3 497.8 -87.8C500.2 -86.9 505.5 -90.2 506.2 -93.1C507.1 -96.6 505.5 -99.5 501.6 -101.5C498.6 -103.1 496.4 -105.9 496.4 -108.3C496.4 -109.2 497.5 -109.4 499.8 -108.9C503.2 -108.3 506 -109.6 513.7 -115C515.4 -116.3 518.4 -117.1 521.4 -117.2C527.5 -117.3 529.5 -118.3 527.7 -120.4C527 -121.3 526.7 -122.2 527 -122.4C528.3 -123.8 545.5 -126.2 549.5 -125.6C553.3 -125 554.5 -125.3 557.7 -127.7C559.7 -129.2 561.3 -130.9 561.3 -131.4C561.3 -132.7 552.2 -132.6 551.4 -131.3C550.3 -129.5 548.9 -130.1 549.3 -132.2C549.6 -134 548.7 -134.2 541.1 -134.8C520.3 -136.5 518.6 -136.8 521.1 -139.3ZM470 280.1C472.9 286.5 472.6 289.3 467.5 303.2C464.8 310.7 461.9 319.6 461.1 323.1C458.4 334.1 456.8 336.8 452.4 338.1C447.7 339.5 448.2 339.5 445.6 338C442.6 336.4 442.2 335.5 441.4 329.3C440.8 324.4 441.1 323.3 444 318.5C447 313.6 447.2 312.7 446.6 307.4C445.6 299.8 447.3 295.7 451.7 294.8C455.9 293.8 465 285.8 467.1 281.2L468.8 277.6L470 280.1ZM956.3 311.5C956.3 308 956.9 308.3 959.9 313.4C961.3 315.9 963.9 319.3 965.7 321C967.4 322.6 968.9 324.4 968.9 324.8C968.9 326.9 966.6 325.3 961.6 319.9C958.3 316.2 956.3 313.1 956.3 311.5ZM495.3 317.3C495.9 317.3 496.4 317.8 496.4 318.4C496.4 318.9 495.9 319.4 495.3 319.4C494.8 319.4 494.3 318.9 494.3 318.4C494.3 317.8 494.8 317.3 495.3 317.3ZM1046.5 314.7C1048 313.7 1048.6 314.5 1047.5 316.2C1047 317.1 1046.4 317.2 1046 316.5C1045.6 315.9 1045.8 315.1 1046.5 314.7ZM502.7 313.7C503.2 313.3 503.7 313.5 503.7 314.1C503.7 314.7 503.3 315.2 502.7 315.2C502.1 315.2 501.6 315 501.6 314.8C501.6 314.5 502.1 314 502.7 313.7ZM1018.7 304.2C1017.7 301.5 1019 300.6 1021.9 301.9C1024.4 303 1024.5 303.2 1022.7 304.5C1020.3 306.2 1019.5 306.2 1018.7 304.2ZM1025.4 299.5C1023.3 298.2 1024.8 297.2 1028 297.6C1030.6 298 1030.6 298.1 1028.8 299.2C1027.6 299.9 1026.2 300 1025.4 299.5ZM976.5 295.7C974.3 291 975.1 289.3 977.3 293.7C979.6 298.4 979.6 298.5 978.6 298.5C978.1 298.5 977.2 297.2 976.5 295.7ZM980.5 294.9C980.4 293.8 980.7 293.2 981 293.6C981.4 293.9 981.4 294.8 981.1 295.6C980.8 296.4 980.5 296.1 980.5 294.9ZM1065.8 284.9C1064.8 283.3 1065.7 282.6 1068 283C1069.6 283.3 1069.6 283.5 1068.1 284.7C1067 285.7 1066.3 285.7 1065.8 284.9ZM447.1 278.6C447.7 278.6 448.2 279.1 448.2 279.7C448.2 280.3 448 280.7 447.7 280.7C447.5 280.7 447 280.3 446.6 279.7C446.3 279.1 446.5 278.6 447.1 278.6ZM834.5 222.2C836.9 222.2 840 225.7 840 228.5C840 229.5 841 231.5 842.3 233.1C844.5 236 844.6 236 846.2 233.9C847.1 232.8 850 230.6 852.7 229.1L857.5 226.3L864.2 229.3C867.9 231 873.1 233.1 875.8 234.1C878.5 235.1 884 238 887.9 240.5C895.3 245.4 898.6 249.6 896.7 251.8C895.2 253.6 901.2 261.9 907.3 266.6C914.1 271.7 914 272.2 906.5 269.9C899.9 267.8 896.9 265.8 894.3 262C891.3 257.5 885.9 254.2 883.1 255.1C881.9 255.4 880 257.4 878.9 259.4C876.8 262.8 876.4 263 872.8 262.3C870.6 262 867.6 260.5 866 259.1C864.1 257.2 862.6 256.7 861.1 257.2C859.9 257.5 858.2 257.4 857.2 256.9C855.8 256.1 855.9 255.7 858.2 254.2C860.9 252.5 860.9 252.5 859.1 248.7C857.7 245.7 855.7 244.1 849.2 240.9C844.8 238.6 839.7 236.8 838 236.8C834.1 236.8 832.5 233.2 835.4 231.1C837.2 229.8 836.9 229.5 832.4 227.3C827.5 224.9 827.5 224.8 829.8 223.6C831.1 222.8 833.2 222.2 834.5 222.2ZM951.9 268.2C953.2 268.2 954.7 270.2 953.9 270.9C953.7 271.1 952.9 270.6 952.1 269.8C951.3 268.8 951.2 268.2 951.9 268.2ZM945.8 265.6C944.4 263.9 944.7 263.6 947.3 264.6C948.2 265 949 265.7 949 266.2C949 267.6 947.3 267.3 945.8 265.6ZM793.8 264.1C796.8 260 801.4 258.2 805.7 259.6C808.9 260.6 808.9 260.6 806.4 260.7C805 260.8 801.5 262.3 798.8 264C792.6 267.9 791.1 268 793.8 264.1ZM775.1 264C776.9 264 779.9 265.8 779.2 266.5C778.9 266.7 777.5 266.3 776.1 265.5C774.6 264.7 774.1 264.1 775.1 264ZM1032.8 264.5C1033.3 264.2 1033.8 264.4 1033.8 265C1033.8 265.6 1033.3 266.1 1032.8 266.1C1032.2 266.1 1031.7 265.9 1031.7 265.6C1031.7 265.4 1032.2 264.9 1032.8 264.5ZM950.1 261C950.1 259.9 950.5 260.1 951.2 261.8C951.7 263.2 952 264.8 951.8 265.4C951.6 266 951.1 265.7 950.7 264.6C950.3 263.6 950 262 950.1 261ZM936.3 257.7C936.9 257.7 937.9 258.7 938.5 259.8C939.1 261 939.2 261.9 938.8 261.9C938.3 261.9 937.4 261 936.6 259.8C935.9 258.7 935.8 257.7 936.3 257.7ZM779.3 260.4C777.4 258.2 779.6 257.5 784.6 258.8C789.5 260.1 789.5 260.3 784.4 261.3C781.7 261.7 780.2 261.5 779.3 260.4ZM763.1 259.7C763.9 258.4 770.6 258.5 771.4 259.8C771.7 260.4 771.4 260.9 770.7 260.9C769.9 260.9 768.4 261.1 767.2 261.3C766 261.6 764.5 261.5 763.8 261.2C763.1 260.9 762.7 260.2 763.1 259.7ZM943.2 258.8C940.4 255.7 941.9 255.2 944.8 258.2C946.1 259.7 946.8 260.9 946.2 260.9C945.6 260.9 944.2 259.9 943.2 258.8ZM715.3 251.4C715.3 248.1 724.7 247.8 729.7 251C731.6 252.2 733.1 252.3 737 251.4C741.4 250.4 742.3 250.5 744.8 252.4C746.4 253.6 748.2 254.6 748.8 254.6C750.9 254.6 757.1 258.1 756.6 258.9C756.3 259.4 755.5 259.7 754.8 259.7C754.1 259.6 750.5 259.1 746.8 258.6C743 258.1 737.7 256.9 735 256C732.3 255.1 729.1 254.7 727.9 255.1C725.5 255.9 715.3 252.9 715.3 251.4ZM934 251.4C934.6 251.4 935.9 252.4 936.9 253.5C938 254.7 938.3 255.6 937.8 255.6C937.2 255.6 935.9 254.7 934.8 253.5C933.8 252.4 933.4 251.4 934 251.4ZM926.5 247.8C925.9 245 925.9 244.9 927 246.7C927.7 247.9 929 249.6 929.8 250.6C930.7 251.6 930.9 252.5 930.3 252.9C929.7 253.2 928.8 252.9 928.2 252.2C927.6 251.5 926.8 249.5 926.5 247.8ZM915 242.8C917.2 241 918.6 240.3 918.6 241.1C918.5 243.3 917.3 244.9 913.3 247.8C909.2 250.8 909.4 250.8 906 248.9L903.4 247.4L907.5 246.7C909.7 246.3 913.1 244.5 915 242.8ZM672.6 192.9C675.4 193 682.5 196.9 685.5 200C693.9 208.8 695.6 210.3 699.5 212.8C703.3 215.1 705.1 217.5 705.3 220.6C705.4 221.2 706.4 222.8 707.7 224.3C709 225.7 711.5 228.4 713.2 230.3C714.8 232.1 716.5 235 716.9 236.7C718.1 242.3 713.6 247.2 709.5 244.8C705.7 242.6 698.7 234.2 696.5 228.9C695.2 226.1 692.4 221.4 690.2 218.5C688.1 215.6 685.5 211.9 684.6 210.1C683.8 208.4 681.1 205.1 678.7 202.8C673.6 198 670.5 192.9 672.6 192.9ZM499.5 243.1C500.1 243.1 500.6 243.5 500.6 244.1C500.6 244.7 500.1 245.2 499.5 245.2C499 245.2 498.5 244.7 498.5 244.1C498.5 243.5 499 243.1 499.5 243.1ZM797.1 213.3C801.1 211.2 801.4 211.3 800.1 214.2C798.4 217.9 795 219.1 791.4 217.2C785 213.9 776.5 218.9 781 223.3C782.6 225 783.6 225.1 786.6 224.2C791.8 222.8 793.9 223 790.6 224.8C787 226.8 786.3 229 788.2 232.6C789 234.3 789.7 236.9 789.7 238.4C789.7 240.7 789.5 240.9 787.6 239.9C786.5 239.3 784.8 237.1 783.9 235C782.3 231.2 782.3 231.2 780.3 233.2C778.5 235 778.4 235.8 779.4 239.3C780.2 242.5 780.2 243.6 779.1 244.3C777.2 245.4 776.4 245.4 775.6 244.1H775.6C775.2 243.5 775.2 242.1 775.6 241C775.9 239.9 775.5 237.9 774.6 236.5C773.1 234.3 773.2 233.8 774.8 231.6C775.7 230.2 776.9 226.5 777.3 223.4C777.8 219.5 778.9 216.8 780.5 215.2C782.8 212.9 783.4 212.8 788.5 213.8C792.9 214.6 794.7 214.5 797.1 213.3ZM911.6 231.9C913.2 230.3 922.3 237.7 921.5 240C921.3 240.7 920.3 240.1 919.3 238.5C918.3 237 916.1 235.1 914.3 234.1C912.5 233.2 911.3 232.2 911.6 231.9ZM765 187.7C765.7 187.7 767.8 189.2 769.6 191.1L773 194.6L770.3 198.2C767.2 202.3 767.4 205.8 770.9 210.6L772.9 213.6L770.3 215.3C768.9 216.2 767.7 217.6 767.7 218.3C767.7 220.7 761 234.5 759.3 235.5C758.2 236.2 756.8 236.1 754.8 235.1C753.2 234.2 751.1 233.8 750.1 234.1C747.5 235 737.1 232.9 736.1 231.3C735.3 230.1 732.9 222.4 731.6 216.9C731.2 215.4 731.6 213.5 732.4 212.4C733.6 210.7 734.2 210.6 736.1 211.6C738.1 212.7 738.6 212.5 739.6 210.1C740.3 208.6 742.6 206.5 744.7 205.4C747 204.3 749.1 202.1 749.9 200.3C750.8 198.2 752.4 196.8 754.8 196C756.7 195.3 759.5 193.2 761.1 191.2C762.6 189.3 764.3 187.7 765 187.7ZM815.3 232.6C816.1 232.6 818.3 232.9 820.2 233.3C823.1 233.9 823.4 234.1 821.6 234.8C819.4 235.7 818.3 235.7 815.7 235C813.5 234.5 813.2 232.6 815.3 232.6ZM983.5 220.6C984.1 220.2 984.6 220.4 984.6 221.1C984.6 221.7 984.1 222.2 983.5 222.2C983 222.2 982.5 222 982.5 221.7C982.5 221.4 983 220.9 983.5 220.6ZM815.6 207.5C817.1 207.5 817.1 207.7 815.5 209.5C814.1 211 814 212 814.8 214.2C816.5 218.5 814.7 221.5 812 218.9L811.8 218.7C811.1 217.9 811.1 217 811.8 215.7C812.4 214.6 812.6 213.3 812.2 212.8C811.3 211.2 813.7 207.5 815.6 207.5ZM286.9 214.3C287.4 214 287.9 214.2 287.9 214.8C287.9 215.4 287.4 215.9 286.9 215.9C286.3 215.9 285.8 215.7 285.8 215.4C285.8 215.2 286.3 214.7 286.9 214.3ZM1012.8 211.7C1013.4 211.7 1013.9 212.2 1013.9 212.8C1013.9 213.3 1013.7 213.8 1013.5 213.8C1013.2 213.8 1012.7 213.3 1012.4 212.8C1012 212.2 1012.2 211.7 1012.8 211.7ZM293.1 201.8C293.7 201.4 294.2 201.6 294.2 202.2C294.2 202.8 293.7 203.3 293.1 203.3C292.6 203.3 292.1 203.1 292.1 202.9C292.1 202.6 292.6 202.1 293.1 201.8ZM801.3 173.3C801.3 170.7 805.2 179.5 806.1 184.3C806.8 187.9 806.7 188.1 805 186.7C802.6 184.7 800.3 186.8 802.3 189.2C803.1 190.1 803.2 190.8 802.5 190.8C801.9 190.8 800.7 191.1 799.8 191.4C798.6 191.9 797.6 190.8 796 187.2C794 182.5 793.8 182.3 790.7 183C787.6 183.6 787.5 183.6 788.7 181.4C789.6 179.6 790.5 179.3 792.7 179.8C794.9 180.3 796.3 179.8 798.4 177.8C800 176.4 801.3 174.4 801.3 173.3ZM604 176.3C604.9 173.9 605 174 607.7 177.9C610.9 182.6 611.9 185.6 610.8 187.3C609.8 188.8 605.7 190.1 605 189C603.8 187.1 603.2 178.6 604 176.3ZM1003.9 182.4C1004.2 182.4 1004.7 182.9 1005 183.5C1005.4 184 1005.2 184.5 1004.5 184.5C1003.9 184.5 1003.4 184 1003.4 183.5C1003.4 182.9 1003.6 182.4 1003.9 182.4ZM840 181.9C840.6 181.5 841.1 181.7 841.1 182.3C841.1 182.9 840.6 183.6 840 184C839.4 184.3 839 184.2 839 183.6C839 183 839.4 182.3 840 181.9ZM770.3 171.4C774.1 167.2 775 166.6 775 168.4C775 169.5 773.5 172.3 771.5 174.4C768.2 178 765.6 179.3 765.6 177.4C765.6 177 767.7 174.3 770.3 171.4ZM788.5 171.3C789.2 170 789.5 170 790.6 171.2C791.5 172.3 791.5 173.1 790.4 174.6C789.1 176.3 789 176.3 788.3 174.6C787.9 173.6 788 172.1 788.5 171.3ZM-12 167.8C-10.3 167.8 -9.9 168.3 -10.4 169.9C-10.7 171.1 -11.8 172 -13 172C-14.7 172 -14.9 171.7 -13.9 170.6C-13.3 169.8 -13.1 168.9 -13.5 168.5C-13.8 168.1 -13.2 167.8 -12 167.8ZM794.8 166.7C795.8 166.7 797.3 171 796.5 171.8C796.3 172.1 795.7 171.4 795.4 170.3C795 169.2 794.5 168 794.2 167.5C794 167.1 794.2 166.7 794.8 166.7ZM784.7 167.6C783.3 165.8 784.7 163.3 786.9 163.8C788.3 164.1 788.3 164.5 787.2 166.6C786.2 168.5 785.7 168.7 784.7 167.6ZM795.3 160.8C796.2 160 799.1 161.8 800.7 164.2C803.1 167.9 800 167.7 797.1 164C795.9 162.4 795.1 161 795.3 160.8ZM778.2 157C778.2 156.4 779.2 156.8 780.5 158.1C781.8 159.4 782.5 160.7 782.2 161C781.9 161.3 780.8 160.8 779.9 159.9C779 159 778.2 157.7 778.2 157ZM-43.1 158C-43.1 157.3 -42.7 157.4 -41.9 158.1C-41.2 158.8 -40.9 159.6 -41.2 159.9C-41.5 160.2 -42.1 160.2 -42.4 159.8C-42.8 159.4 -43.1 158.6 -43.1 158ZM-47.9 157.3C-47.7 157.3 -47.2 157.8 -46.8 158.4C-46.5 158.9 -46.7 159.4 -47.3 159.4C-47.9 159.4 -48.4 158.9 -48.4 158.4C-48.4 157.8 -48.2 157.3 -47.9 157.3ZM1.3 155.2C1.6 155.2 2.1 155.7 2.4 156.3C2.8 156.9 2.6 157.3 2 157.3C1.4 157.3 0.9 156.9 0.9 156.3C0.9 155.7 1.1 155.2 1.3 155.2ZM775.1 135.5C775.1 129.8 778.9 130.1 781.7 135.9C783.2 139.1 783.2 139.8 781.8 143.3C780.2 147 780.2 147.2 783 150.1C785 152.2 786.5 152.9 788.1 152.5C789.5 152.2 790.9 152.6 791.7 153.6C793.6 155.8 792.8 157.5 790.4 156.1C789.4 155.5 787.4 155.3 786 155.7C784 156.2 782.6 155.4 778.8 151.5C773.4 146 772.4 143.6 774 140.7C774.6 139.6 775.1 137.2 775.1 135.5ZM-4.4 148.4C-3.8 148.1 -3.3 148.3 -3.3 148.9C-3.3 149.5 -3.8 150 -4.4 150C-5 150 -5.4 149.8 -5.4 149.5C-5.4 149.3 -5 148.8 -4.4 148.4ZM160.1 144.8C160.7 144.8 161.1 145.2 161.1 145.8C161.1 146.4 160.7 146.9 160.1 146.9C159.5 146.9 159.1 146.4 159.1 145.8C159.1 145.2 159.5 144.8 160.1 144.8ZM-7.5 140.1C-6.9 139.7 -6.5 139.9 -6.5 140.5C-6.5 141 -6.9 141.8 -7.5 142.2C-8.1 142.5 -8.6 142.3 -8.6 141.8C-8.6 141.2 -8.1 140.4 -7.5 140.1ZM-17.5 137.5C-17.8 136.9 -17.4 136.7 -16.5 137.1C-14.7 137.8 -14.3 138.5 -15.8 138.5C-16.4 138.5 -17.1 138 -17.5 137.5ZM149.6 136.4C150.2 136.4 150.7 136.9 150.7 137.5C150.7 138 150.5 138.5 150.2 138.5C150 138.5 149.5 138 149.1 137.5C148.7 136.9 148.9 136.4 149.6 136.4ZM-12.8 134.3C-12.2 134.3 -11.7 134.8 -11.7 135.4C-11.7 135.9 -11.9 136.4 -12.2 136.4C-12.4 136.4 -12.9 135.9 -13.3 135.4C-13.6 134.8 -13.4 134.3 -12.8 134.3ZM-8.1 134.3C-7.9 134.3 -7.4 134.8 -7 135.4C-6.6 135.9 -6.9 136.4 -7.5 136.4C-8.1 136.4 -8.6 135.9 -8.6 135.4C-8.6 134.8 -8.4 134.3 -8.1 134.3ZM-81.9 131.1C-81.9 129.6 -77.3 130 -75 131.7C-73.1 133.1 -73.2 133.2 -76.1 133.2C-77.9 133.1 -79.9 132.9 -80.6 132.6C-81.3 132.3 -81.9 131.6 -81.9 131.1ZM-30.9 130.1C-29.3 130.1 -28.5 130.6 -28.7 131.4C-29.2 132.9 -32.9 133.8 -34 132.7C-35.2 131.4 -33.7 130.1 -30.9 130.1ZM-52.5 124.9C-47.7 124.9 -40.7 127.1 -39.5 129C-38.7 130.3 -52.2 133 -54.1 132C-55 131.5 -57.1 131.3 -58.7 131.7C-60.3 132 -62.8 131.9 -64.2 131.3C-66.4 130.4 -66.2 130.3 -62.4 130.4C-56.9 130.5 -55.4 129.6 -56.8 126.9C-57.8 125.1 -57.5 124.9 -52.5 124.9ZM729 124.9C731.2 124.9 731.2 124.9 729.3 128.2C727.1 132.1 725.7 132.8 723.9 131C721.2 128.2 723.9 124.9 729 124.9ZM-23.8 129.8C-22.9 129.4 -22.2 129.6 -22.2 130.2C-22.2 130.7 -22.9 131.2 -23.8 131.2C-24.6 131.2 -25.3 131 -25.3 130.8C-25.3 130.5 -24.6 130.1 -23.8 129.8ZM-105 113.6C-105 111.4 -96.6 109 -90.6 109.4C-84.9 109.9 -81.7 111.1 -70.4 117.1C-61.1 122 -61.1 122.1 -64.1 122.9C-67.5 123.9 -69.9 124 -70.6 123.3C-70.9 123 -73.2 122.7 -75.5 122.6C-78.8 122.6 -79.6 122.3 -78.8 121.3C-78 120.4 -79.1 119.1 -83 116.6C-90.5 111.7 -94.8 110.8 -99.8 112.8C-104.6 114.7 -105 114.8 -105 113.6ZM-63 114.5C-61 113.1 -59.9 113.1 -59.9 114.5C-59.9 115 -61 115.5 -62.3 115.5C-64.2 115.5 -64.3 115.3 -63 114.5ZM769.5 103.8C771.9 99.6 773.6 99.1 774.4 102.2C775.2 105.5 772.8 113.6 771.3 112.6C770.7 112.2 769.6 110.8 768.9 109.4C767.8 107.4 767.9 106.5 769.5 103.8ZM-56.2 111.2C-55.5 110.1 -51.5 109.9 -51.5 111.1C-51.5 111.5 -52.7 111.9 -54.1 112C-55.6 112.1 -56.5 111.7 -56.2 111.2ZM-76.5 96.7C-75.9 96.7 -75.6 97.6 -75.9 98.7C-76.2 99.8 -75.9 101 -75.2 101.2C-74.6 101.4 -74.3 101.9 -74.7 102.3C-75 102.7 -76 102.1 -76.9 101.1C-78.6 99.2 -78.3 96.7 -76.5 96.7ZM-71 90.6C-70.7 90.3 -70.1 90.9 -69.8 91.9C-69.4 92.8 -69.3 93.9 -69.6 94.2C-69.9 94.4 -70.4 93.9 -70.8 92.9C-71.2 91.9 -71.2 90.9 -71 90.6ZM-75.4 90.4C-73.6 90.4 -73.5 90.6 -74.9 92C-75.8 92.8 -76.7 93.5 -76.9 93.5C-77.2 93.5 -77.4 92.8 -77.4 92C-77.4 91.1 -76.5 90.4 -75.4 90.4ZM798.7 64.5C795.4 60.6 796.6 58 800.5 60.5C803.3 62.4 804.8 66.2 803.8 68.9C803 70.9 801.2 71 801.2 69C801.2 68.2 800.1 66.2 798.7 64.5ZM-10.7 61.6C-10.1 61.3 -9.6 61.5 -9.6 62.1C-9.6 62.7 -10.1 63.2 -10.7 63.2C-11.2 63.2 -11.7 63 -11.7 62.8C-11.7 62.5 -11.2 62 -10.7 61.6ZM810.4 58C812.1 58 812.1 60.3 810.5 62C808.8 63.7 807.9 63.5 807.1 61.5C806.4 59.7 808 58 810.4 58ZM822.7 31.7C819.4 25.4 820.3 23.3 825.1 26.1C828.6 28.2 831.9 34.1 831 36.6C830.6 37.5 831.1 40.3 832.1 42.8C833.5 46.4 833.6 47.9 832.7 49.6C831.3 52.1 827.6 53.8 823.3 53.8C820.9 53.8 820.2 54.4 819.5 57.1L818.5 60.5L816.7 57.6C814.6 54.6 811.8 54.1 805.2 55.9C802.5 56.7 800.7 56.7 799.4 56C798.4 55.4 798.1 54.9 798.8 54.9C799.5 54.9 801.5 53.7 803.2 52.2C805.4 50.3 807.1 49.7 808.8 50.2C810.7 50.6 812.7 49.7 817 46.5C825.3 40.3 826 38.4 822.7 31.7ZM396.3 50.7C397.3 49.1 399 49.4 398.3 51C397.7 52.7 393.2 55 392.3 54.1C391 52.8 391.7 51.7 393.7 51.7C394.8 51.7 396 51.2 396.3 50.7ZM357.6 50.8C362.8 50.7 366.6 51.7 365.9 52.9C365 54.2 360.1 53.9 356.5 52.3L353.4 50.8L357.6 50.8ZM468.1 1.6C463.2 -5.3 456.4 -4.9 447.9 2.9C442.4 7.9 442 9.3 445.1 10.9C446.2 11.5 447.1 12.7 447.1 13.6C447.1 14.5 449 17.2 451.3 19.6C456.5 25.3 457.5 27.9 456.8 34.6L456.3 40.1L463.5 43.7C467.5 45.8 470.9 47.4 471 47.5C471.2 47.5 472.7 46.8 474.4 45.9C477.1 44.5 477.5 43.8 477.5 39.8C477.5 36.9 476.9 34.7 475.9 33.9C475 33.1 473.5 31.1 472.6 29.4C471.2 26.6 471.2 26.4 472.7 27C474.7 27.7 477.5 26.8 477.5 25.4C477.5 24.8 476.6 23 475.4 21.3C473.6 18.8 472.9 18.4 471.2 19.3C469.8 20.1 469.1 20.1 469.1 19.3C469.1 18.8 467.3 17.3 465 16.2C459.9 13.6 458.1 10.7 459.7 7.8C460.9 5.6 465.2 4 467 5.1C469.5 6.7 470.2 4.4 468.1 1.6ZM312 38.9C314.6 38.2 320.4 39 320.3 40.1C320.3 40.4 319.9 41.5 319.5 42.5C318.9 44 318.4 44 314.2 41.8C310 39.7 309.8 39.4 312 38.9ZM293.6 25.8C295.7 23.6 297.3 25.1 297.3 29.2C297.3 34 294.7 34.8 293.2 30.5C292.3 27.9 292.4 26.9 293.6 25.8ZM268.6 31.4C269.4 29.5 272.6 29.1 271.9 31.1C271.7 31.8 270.7 32.5 269.8 32.7C268.5 32.9 268.2 32.5 268.6 31.4ZM-59 16.6C-60.4 15.2 -61.2 15.3 -65.5 17.2C-70.5 19.4 -72.1 22.4 -68.2 22.4C-67.1 22.4 -64.2 21.4 -61.8 20.2C-58.1 18.3 -57.7 17.9 -59 16.6ZM815.4 8.9C813.1 4.4 813.4 4.1 817.5 7.2C819.5 8.7 823.5 10.7 826.4 11.5C832.2 13.3 833.7 14.7 830.6 15.6C829.4 16 828.5 17 828.5 17.8C828.5 19 827.8 19.1 825.6 18.6C820.1 17.2 818.5 17.5 818.9 20.1C819.3 23.2 818.6 23 816 19.5C814.1 16.8 814.1 16.3 815.5 14.3C816.9 12.3 816.9 11.7 815.4 8.9ZM-68.2 -8.8C-70.4 -11.7 -73.6 -12 -80.9 -10C-83.5 -9.3 -86.4 -8.7 -87.4 -8.7C-88.4 -8.8 -89 -8.4 -88.7 -7.8C-88.3 -7.3 -88.4 -6.8 -88.9 -6.8C-89.4 -6.8 -90.9 -5.9 -92.4 -4.8L-95 -2.8L-92 -1.7C-89.8 -0.8 -88.4 -1 -85.9 -2.3C-82.9 -3.8 -82.3 -3.8 -79.1 -2.3C-77.1 -1.3 -74.4 -0.8 -73.1 -1.2C-71.7 -1.5 -70.3 -1.3 -70 -0.8C-69.6 -0.2 -71.1 0.6 -73.3 1C-79.5 2 -82.7 4.5 -87.1 12C-90.8 18.2 -91 18.9 -89.5 20.6C-88.1 22.2 -87.7 22.2 -85.7 20.8C-84.5 20 -82.3 16.8 -80.9 13.8C-78.1 8 -72.9 3.6 -68.7 3.6C-65.6 3.6 -65.6 4.1 -68.4 7.6L-70.5 10.4L-68.3 12.2C-66.5 13.6 -65.6 13.7 -63.5 12.8C-62.1 12.2 -60.7 10.7 -60.4 9.6C-59.9 8.1 -59.1 7.8 -57.2 8.2C-55.5 8.7 -54.5 8.3 -53.8 7C-51.6 3.2 -57.1 -1.6 -61 0.5C-63.9 2 -67.6 -1 -66.8 -4.2C-66.5 -5.4 -67.1 -7.4 -68.2 -8.8ZM295.8 16.8C296.9 16.4 297.3 16.9 297.3 18.8C297.3 21.3 296.3 22.1 294.9 20.7C293.7 19.5 294.1 17.4 295.8 16.8ZM-42.5 9.7C-44.8 8.4 -51.5 10.6 -51.5 12.6C-51.5 14.6 -46.3 14.5 -43.2 12.3C-41.1 10.8 -41 10.5 -42.5 9.7ZM788.8 -31.8C789.5 -32.1 791.1 -31 792.3 -29.4C795.2 -25.5 798.7 -22.2 804.3 -18.1C809 -14.7 811.2 -11.5 808.3 -12.7C804.8 -14 805.7 -10.9 810.1 -5.8C812.7 -2.9 814.9 -0.3 814.9 -0C814.9 1.3 810.8 0.3 809.4 -1.4C808.5 -2.4 806.4 -6 804.6 -9.5C802.9 -12.9 798.3 -19.3 794.5 -23.6C790.2 -28.4 788 -31.5 788.8 -31.8ZM43.8 -4.8C44.3 -4.8 44.5 -4.1 44.2 -3.2C43.9 -2.3 43.4 -1.6 43.2 -1.6C42.9 -1.6 42.8 -2.3 42.8 -3.2C42.8 -4.1 43.2 -4.8 43.8 -4.8ZM49.2 -21.5C49.9 -21.5 49.7 -20.7 48.8 -19.7C46.6 -17.3 48.1 -14.6 52.1 -13.7C53.8 -13.3 55.5 -12 56.2 -10.5C57.3 -8.1 57.1 -7.9 53.5 -6.9C49.7 -5.8 45.1 -5.7 37.3 -6.6L33.4 -7L40.7 -14.2C44.8 -18.2 48.6 -21.5 49.2 -21.5ZM-219.6 -19.8C-217.5 -20.6 -213.5 -17.9 -212 -14.6C-210.4 -11.2 -210.4 -11 -212.7 -11C-213.8 -11 -216.2 -12.4 -218 -14.1C-221.6 -17.5 -222 -18.9 -219.6 -19.8ZM249.4 -52.8C249.8 -52.9 250.1 -52.3 249.9 -51.6C249.8 -50.9 250.8 -50.1 252.1 -49.9L254.6 -49.6L249.9 -44.6L252.5 -43.6C255.4 -42.5 258.1 -39 260.9 -32.8C262.2 -29.9 263.1 -29.1 264.7 -29.5C267.9 -30.3 268.3 -28.2 265.3 -26.2C263.2 -24.9 262.8 -24.1 263.7 -23.2C264.6 -22.4 262.9 -21.8 256.8 -20.9C252.3 -20.2 247 -19.4 245 -19C242.2 -18.5 241.8 -18.6 243.4 -19.4C244.5 -19.9 246.8 -20.9 248.4 -21.5C252 -22.8 251.4 -24.1 246.9 -25C243.8 -25.6 243.7 -25.8 245.5 -27.1C246.5 -27.9 247.1 -29 246.7 -29.6C246.3 -30.2 247.4 -31.2 249.1 -31.8C250.9 -32.4 252.3 -33.4 252.3 -33.9C252.3 -36.3 250.1 -40.4 248.9 -40.2C246.1 -39.9 244.8 -40.4 245.3 -41.6C245.5 -42.3 245.3 -43.8 244.8 -44.8C243.4 -47.4 246.5 -52.8 249.4 -52.8ZM232.5 -38.8C233.9 -40.5 240.3 -40.8 241.3 -39.3C241.6 -38.7 241.2 -37.2 240.3 -35.9C239.4 -34.6 238.7 -32.3 238.7 -30.8C238.7 -28.5 238 -27.8 234.2 -26.5C231.8 -25.6 229 -24.6 228.1 -24.2C227 -23.7 226.1 -24.1 225.7 -25.2C225.4 -26.1 225.8 -28.2 226.6 -29.9C227.6 -31.8 227.8 -33.1 227.1 -33.5C225.3 -34.6 226 -36.1 228.7 -36.7C230.1 -37.1 231.8 -38 232.5 -38.8ZM246 -36.7C246.6 -37 247.1 -36.8 247.1 -36.2C247.1 -35.6 246.6 -35.1 246 -35.1C245.4 -35.1 245 -35.3 245 -35.5C245 -35.8 245.4 -36.3 246 -36.7ZM-219.7 -43.5C-217.5 -45.2 -216.5 -44 -217.7 -41.3C-218.6 -39.3 -218.9 -39.3 -220 -40.6C-221 -41.8 -220.9 -42.4 -219.7 -43.5ZM-220.7 -50.8C-219 -52.2 -218.6 -51.1 -220.1 -48.8C-220.6 -48 -221.2 -47.8 -221.6 -48.5C-222 -49 -221.6 -50.1 -220.7 -50.8ZM-281.7 -52.2C-279.9 -52.6 -278.9 -52.5 -279.3 -52C-279.6 -51.5 -281.2 -50.8 -282.8 -50.5C-284.4 -50.1 -286.5 -49.6 -287.5 -49.2C-288.5 -48.8 -289.3 -48.8 -289.3 -49.1C-289.3 -49.9 -286.2 -51.1 -281.7 -52.2ZM333.8 -63C334.9 -63.1 335.8 -62.5 335.8 -61.7C335.8 -60.1 335.4 -60 333.2 -60.9C331.3 -61.7 331.6 -62.9 333.8 -63ZM190.5 -149.1C196.2 -150.6 211.1 -148.8 216.9 -145.8C220.4 -144 222.2 -143.8 228 -144.4C234.3 -145 234.8 -144.9 232.9 -143.5C231.8 -142.7 228.2 -141.7 225.1 -141.3C218.2 -140.3 211.9 -135.5 213.5 -132.3C214.3 -131 213.7 -129.8 211.4 -127.6C209.7 -126 208.1 -123.9 207.8 -122.9C207 -120.6 197.8 -116.4 193.2 -116.2C188.1 -116 187.5 -114.9 191.5 -112.8C193.4 -111.7 196.1 -110 197.5 -108.9L200.2 -106.9L197.8 -106C195.9 -105.3 194.5 -105.7 191.4 -107.9C187.2 -110.7 182.8 -110.8 185.1 -107.9C186.1 -106.8 185.9 -106.3 184.1 -105.9C180.2 -104.9 183 -102.8 187.3 -103.6C190 -104 191.5 -103.8 192.4 -102.8C193.4 -101.5 192.1 -101 184.4 -99.4C179.4 -98.3 172.7 -97.4 169.5 -97.4C163.6 -97.3 159.4 -95.6 153.2 -90.9C151.1 -89.3 146.8 -87.8 141.7 -86.8C131.2 -84.8 127.6 -82.5 121.2 -73.4C116.1 -66.1 113 -63.4 109.8 -63.4C108.9 -63.4 105.9 -64.7 103 -66.2C96.4 -69.8 93.2 -75.4 95.1 -80C96 -82.2 96.1 -83.6 95.2 -85.1C93.5 -88.4 95.8 -92.2 101.5 -95.7C104.3 -97.4 107 -99.7 107.6 -100.8C109.3 -104 107.8 -109.3 104.9 -110.7C103.4 -111.3 102.6 -112.4 103 -113.2C103.7 -115.2 100.2 -121.8 96.7 -125C94.2 -127.4 93.1 -127.6 84.3 -127.7C72.4 -127.8 70.2 -128.4 70.4 -131.8C70.5 -133.3 70.8 -134.4 71.1 -134.4C71.4 -134.4 75.6 -134.9 80.5 -135.5C86.7 -136.3 92.3 -137.9 99.3 -140.8C110 -145.4 110.9 -145.5 136.5 -144.9C144.6 -144.7 152.1 -145.3 161.7 -146.9C170.6 -148.4 177.2 -149 180.7 -148.5C183.7 -148.2 188.1 -148.4 190.5 -149.1ZM7.8 -114.8C3.7 -110.4 5.2 -108.4 9.7 -112.3C11.6 -114 14.9 -115.7 17 -116C20.3 -116.7 21.7 -116.3 25.7 -113.6C31.1 -110 31.5 -109.9 34.6 -111.5C36.4 -112.5 37.1 -112.2 39.1 -109.7C40.5 -108 43.6 -106.1 46.6 -105.2C51.3 -103.7 51.7 -103.4 51.7 -100.1C51.7 -97.6 52.4 -96 54.1 -94.8C61.1 -89.8 60.9 -90 59.4 -87.6C57.3 -84.3 55.7 -84 51.1 -86.4C47.9 -88 46.5 -88.2 44.8 -87.4C42.9 -86.3 42.8 -86.1 44.4 -83C45.7 -80.5 45.9 -79.2 45 -77.3C43.9 -74.9 43.7 -74.8 40.7 -76.4C34.9 -79.4 31 -77.4 36.4 -74.2C38.1 -73.2 39.3 -72 39 -71.5C38 -69.9 32.8 -70.7 28.7 -73.2C26.5 -74.6 23.7 -77.2 22.6 -78.9C20.4 -82.4 18.4 -82.8 12.5 -81.1C10.5 -80.6 8.2 -80.5 7.4 -81C4.3 -82.7 9.9 -84.4 16.1 -83.7C20.8 -83.1 21.9 -83.2 22.4 -84.7C23.6 -87.6 28.7 -89.6 31.5 -88.4C33.2 -87.6 34.8 -87.6 37 -88.4C40 -89.6 40.1 -89.7 38.1 -91.1C37 -91.9 35.7 -92.6 35.3 -92.6C34.8 -92.6 33.2 -94.7 31.7 -97.3C30.2 -99.8 27.4 -102.9 25.5 -104.1C22.1 -106.2 21.7 -106.2 18.7 -104.7C16.2 -103.3 14.7 -103.2 10.6 -104.2C7.8 -104.8 4 -105 2 -104.6C-1.3 -104 -7.5 -105.6 -7.5 -107.2C-7.5 -110 1.3 -116.3 6.6 -117.2L10.8 -118L7.8 -114.8ZM245.5 -72.7C246.3 -72.7 247.1 -72.3 247.1 -71.9C247.1 -71.4 246.3 -71 245.5 -71C244.6 -71 243.9 -71.4 243.9 -71.9C243.9 -72.3 244.6 -72.7 245.5 -72.7ZM210.3 -86.4C213.9 -87.5 214.9 -87.4 217.3 -85.8L220.1 -84L217.6 -82C215.5 -80.4 211.5 -78.9 202 -76.3C201.1 -76.1 199 -76.8 197.3 -78C195.6 -79.1 193.4 -79.8 192.4 -79.5C191.1 -79.1 190.8 -79.4 191.2 -81C191.8 -83.3 201 -86.8 204.1 -85.8C205.2 -85.5 208 -85.7 210.3 -86.4ZM-21.5 -80.3C-18.3 -83.8 -16.1 -84.5 -12.3 -83.2C-7.9 -81.8 -6 -79.6 -7.2 -77.6C-7.9 -76.3 -8.4 -76.3 -10.8 -77.5C-12.8 -78.6 -14.5 -78.7 -17.3 -77.9C-22.3 -76.5 -24 -77.5 -21.5 -80.3ZM-43.2 -100.9C-41.5 -101.6 -39.1 -101.9 -37.8 -101.5C-35.5 -100.7 -35.6 -100.6 -39 -98.8C-43.4 -96.4 -43.6 -96.4 -45.1 -98.2C-46.1 -99.4 -45.7 -99.9 -43.2 -100.9ZM-58.9 -113C-56.6 -115.4 -52.6 -116.6 -52.6 -114.8C-52.6 -114.4 -53.5 -112.5 -54.6 -110.7L-56.7 -107.3L-50 -103.7L-55.5 -101.2C-60.5 -98.9 -61.5 -98.8 -66 -99.9C-70.4 -100.9 -71.6 -100.8 -76 -98.9C-81 -96.8 -82 -96.7 -87.1 -97.5C-88.6 -97.7 -92.1 -98.9 -94.9 -100.2L-100.1 -102.5L-92.8 -103.1C-88.8 -103.3 -85.6 -104.1 -85.6 -104.6C-85.6 -105.2 -88.4 -105.9 -91.9 -106.2C-96.4 -106.6 -97.3 -106.9 -95 -107.3C-91.2 -107.9 -90.9 -109.5 -94.5 -110.4C-97 -111.1 -97 -111.1 -93.4 -112.7C-87.1 -115.4 -80.5 -115.9 -74.5 -114.1C-69.7 -112.7 -68.9 -112.7 -66.6 -114.2C-65 -115.2 -64 -115.4 -64 -114.7C-63.9 -114 -63.8 -113 -63.7 -112.3C-63.5 -110 -61.4 -110.3 -58.9 -113ZM243.9 -103.1C245.9 -104.4 247.1 -104.4 247.1 -103.1C247.1 -102.5 246 -102 244.7 -102C242.8 -102 242.6 -102.2 243.9 -103.1ZM464.6 -125.6C467.1 -126 469.2 -125.8 469.6 -125.2C470.3 -124 468.9 -123.5 460.8 -122C452.7 -120.6 447.9 -118.3 444.7 -114.5C441.3 -110.5 441.2 -108 444.3 -105.9L446.6 -104.2L443.5 -104.3C441.8 -104.3 438.5 -105.1 436.1 -106C430.8 -108.1 430.9 -108 432.5 -109.8C433.2 -110.7 433.4 -111.4 432.9 -111.5C432.4 -111.5 432.9 -112.2 434.1 -113.1C435.2 -113.9 436.2 -115 436.2 -115.4C436.2 -116.9 440.5 -121 443.5 -122.4C445.2 -123.2 449.7 -124.1 453.4 -124.4C457.2 -124.7 462.2 -125.2 464.6 -125.6ZM-105.7 -115.5C-96.2 -120.7 -91.5 -121.4 -83 -118.8L-78.2 -117.3L-84.5 -116.1C-89.7 -115.1 -100.6 -111.4 -109.2 -107.9C-110 -107.5 -111.6 -108 -112.5 -109C-114.2 -110.7 -113.8 -111 -105.7 -115.5ZM-24 -118.7C-23.6 -118.7 -23.9 -117.3 -24.8 -115.6C-26.9 -111.6 -36.9 -107.2 -36.9 -110.3C-36.9 -110.9 -38.2 -112.1 -39.7 -113L-42.6 -114.7L-38.8 -114.1C-36 -113.6 -34.7 -113.9 -34 -114.9C-33.3 -116.2 -26.7 -118.7 -24 -118.7ZM-20.5 -113.4C-22 -115.8 -11.8 -119.6 -7.4 -118.2C-4.3 -117.2 -6.4 -115.5 -11.9 -114.5C-14.4 -114.1 -17.2 -113.5 -18.2 -113.1C-19.1 -112.7 -20.2 -112.8 -20.5 -113.4ZM4 -127.1C6.4 -128.1 7.6 -128 11 -126.3C14.3 -124.6 16.4 -124.3 22.5 -124.7C26.6 -125 31.4 -125 33 -124.5L36 -123.8L32.3 -121.8C30.3 -120.8 27.9 -119.9 27 -120C26.2 -120.1 19.8 -120.5 12.9 -121.1C6 -121.6 0.2 -122.2 0 -122.4C-0.9 -123.2 1.4 -126.1 4 -127.1ZM329.8 -138.8C329.8 -139.8 330.1 -139.8 331.1 -138.8C331.8 -138.1 335.3 -137.6 339.5 -137.6C346.9 -137.6 348.7 -136.2 343.7 -134.3C341.1 -133.3 336.6 -133.6 331.6 -135.1C330.6 -135.4 329.8 -135.2 329.8 -134.8C329.8 -133.8 335.7 -130.2 337.3 -130.2C337.9 -130.2 339 -129.6 339.8 -128.8C341.1 -127.5 341.1 -127.2 339.7 -126.7C338.9 -126.4 338.2 -126.6 338.2 -127.3C338.2 -128 336.9 -128.1 334.4 -127.7C331.8 -127.2 330.9 -127.3 331.4 -128.1C331.8 -128.8 331.5 -130 330.8 -130.8C329.5 -132.4 325.6 -132.9 325.6 -131.5C325.6 -131 324.1 -128.9 322.2 -126.9L318.8 -123.1L314.4 -125.4C309.2 -128 308.7 -129.2 312.8 -129.2C314.4 -129.2 316.4 -129.7 317.2 -130.4C318.6 -131.3 318.6 -131.4 317.1 -131C316.2 -130.7 314.9 -131 314.2 -131.6C313.3 -132.6 312.8 -132.5 312.2 -131.6C311.6 -130.7 310.5 -130.5 308.3 -131.2C302.8 -132.8 301.5 -133.6 301.5 -135.2C301.5 -136.6 302.9 -136.7 311.5 -136.1C318 -135.7 321.4 -135.8 321.4 -136.5C321.4 -138.6 324.3 -137.5 325.1 -135.2L325.9 -132.9L326.4 -135.2C326.6 -136.5 327.5 -137.6 328.3 -137.6C329.1 -137.6 329.8 -138.1 329.8 -138.8ZM94.6 -146.1C86.6 -142.3 73.7 -138.6 68.4 -138.6C67.2 -138.6 63.5 -137.2 60.2 -135.5C57 -133.8 53.7 -132.3 52.9 -132.3C52.1 -132.3 48.7 -130.9 45.3 -129.2C41.9 -127.5 39.1 -126.1 39.1 -126.1C39.1 -126.1 37.9 -126.8 36.5 -127.7C34.7 -128.7 32.1 -129 28.1 -128.7C24.4 -128.3 21.5 -128.6 19.9 -129.5C17.8 -130.7 18.3 -130.9 24.9 -130.8C33 -130.8 36.6 -132.5 32.2 -134.4C30.1 -135.3 30.4 -135.4 34 -134.9C38.7 -134.2 40.6 -135.5 38 -137.6C35.3 -139.9 38.3 -140.6 48 -140C54 -139.6 57.8 -139.8 59.4 -140.6C62.3 -142.2 61.2 -144.2 57.8 -143.4C55.4 -142.8 39.2 -143.7 39.9 -144.4C40.3 -144.9 63.4 -147 78.5 -148C86.3 -148.5 95.1 -149.2 97.9 -149.5L103 -150.2L94.6 -146.1ZM14.5 -140.7C20 -143.5 25.1 -144.2 27.4 -142.5C29.3 -141.1 29.2 -140.9 25.5 -138.8C21.8 -136.6 20.2 -136.3 16 -137.2C11 -138.3 10.8 -138.8 14.5 -140.7Z" fill="#007030"/>
</g>
</g>
</g>
<defs>
<filter id="filter0_i_1_3" x="0" y="0" width="678" height="678" filterUnits="userSpaceOnUse" color-interpolation-filters="sRGB">
<feFlood flood-opacity="0" result="BackgroundImageFix"/>
<feBlend mode="normal" in="SourceGraphic" in2="BackgroundImageFix" result="shape"/>
<feColorMatrix in="SourceAlpha" type="matrix" values="0 0 0 0 0 0 0 0 0 0 0 0 0 0 0 0 0 0 127 0" result="hardAlpha"/>
<feMorphology radius="20" operator="erode" in="SourceAlpha" result="effect1_innerShadow_1_3"/>
<feOffset/>
<feGaussianBlur stdDeviation="56"/>
<feComposite in2="hardAlpha" operator="arithmetic" k2="-1" k3="1"/>
<feColorMatrix type="matrix" values="0 0 0 0 0 0 0 0 0 0.133333 0 0 0 0 0.8 0 0 0 0.18 0"/>
<feBlend mode="normal" in2="shape" result="effect1_innerShadow_1_3"/>
</filter>
<filter id="filter1_di_1_3" x="-318.299" y="-150.168" width="1388.51" height="629.998" filterUnits="userSpaceOnUse" color-interpolation-filters="sRGB">
<feFlood flood-opacity="0" result="BackgroundImageFix"/>
<feColorMatrix in="SourceAlpha" type="matrix" values="0 0 0 0 0 0 0 0 0 0 0 0 0 0 0 0 0 0 127 0" result="hardAlpha"/>
<feOffset dy="1"/>
<feGaussianBlur stdDeviation="0.5"/>
<feComposite in2="hardAlpha" operator="out"/>
<feColorMatrix type="matrix" values="0 0 0 0 0 0 0 0 0 0 0 0 0 0 0 0 0 0 0.08 0"/>
<feBlend mode="normal" in2="BackgroundImageFix" result="effect1_dropShadow_1_3"/>
<feBlend mode="normal" in="SourceGraphic" in2="effect1_dropShadow_1_3" result="shape"/>
<feColorMatrix in="SourceAlpha" type="matrix" values="0 0 0 0 0 0 0 0 0 0 0 0 0 0 0 0 0 0 127 0" result="hardAlpha"/>
<feOffset dy="1"/>
<feGaussianBlur stdDeviation="0.5"/>
<feComposite in2="hardAlpha" operator="arithmetic" k2="-1" k3="1"/>
<feColorMatrix type="matrix" values="0 0 0 0 1 0 0 0 0 1 0 0 0 0 1 0 0 0 0.7 0"/>
<feBlend mode="normal" in2="shape" result="effect2_innerShadow_1_3"/>
</filter>
</defs>
</svg>
